MeshVersionFormatted 1
Dimension 3
Vertices
300
-1.6129409871 0.1376212766 0.4270654634 1
-1.6489575386 -0.1206347177 -0.1873320775 0
-0.9847991531 0.0996104823 0.3136144174 0
-1.4540649886 -0.1475312393 -0.4847662364 0
-1.2314479932 -0.2008617758 -0.1684301974 0
-1.1652535274 0.3499233023 -0.1622163266 0
-1.9477093255 0.1718614286 -0.1837544204 0
-1.0744417139 0.2582428887 -0.1549637064 0
-1.7587615349 0.0594860541 0.1666075118 0
-1.6707383853 -0.0155538290 0.0336292020 0
-1.5840167394 -0.0966515946 -0.1405073833 0
-1.1526901154 -0.0547337483 0.4462202428 0
-1.5352634083 0.2476884353 -0.3635613089 0
-1.7733938580 0.1001843816 -0.3060681279 0
-1.1128484250 0.0458723680 0.2620688706 0
-1.7099444655 -0.3334565703 -0.1573445009 0
-1.9711405282 -0.1192223900 -0.3234603691 1
-1.3474154893 -0.2390176084 0.4334244447 0
-1.5569828648 -0.0785305446 0.1906379228 0
-1.3205055118 0.1354103823 -0.3121269974 0
-1.8960997904 0.2805759718 -0.2276552082 0
-1.7519851770 0.2957959998 -0.1852243908 0
-1.2216630733 0.1345076349 0.1380201958 0
-1.0230305748 -0.0211216102 0.1740769120 0
-0.8643868225 0.0215290208 0.2957903365 0
-1.4389986661 -0.1786712954 0.1233305458 0
-1.6963736972 0.2382835398 -0.3840004184 1
-1.6105789645 -0.1369798471 -0.0670808725 0
-1.6450627483 0.4001044967 -0.1617727622 1
-1.6464117914 -0.1920672646 0.3189943933 0
-0.9252149864 0.2954191253 0.2021059953 0
-1.8885056849 -0.1275831826 0.2237788930 1
-1.6232511457 -0.0279183486 -0.0275623584 0
-1.2123815134 0.0976888025 -0.4157600575 0
-1.6969284163 0.4629365352 0.0133213767 0
-1.3994721116 0.4664206089 -0.0871992006 0
-1.3656246076 0.1802725351 -0.2900076538 0
-1.2057558226 0.2163932731 0.4117776920 0
-1.7255905037 -0.2427907769 0.3664095666 1
-1.2464134309 0.2467686383 0.3248947048 0
-1.2839295321 -0.1982075633 0.2815837616 0
-1.0150379591 0.2069267337 -0.2060376282 0
-1.3457812340 -0.0643565756 0.0693740130 0
-1.8575529603 -0.0130593559 -0.0546310813 0
-0.8743435277 0.3284295624 -0.1723254911 0
1.0877524525 0.4090077446 0.0135375601 0
1.2328105430 0.1296799552 0.4921855560 0
1.3891553595 0.3533390068 -0.0029874303 0
1.3456112914 0.1656141281 -0.4139896095 0
1.1767897847 -0.0016942695 -0.3022109110 0
1.6946622258 -0.1147859385 -0.1454506896 0
1.2819760580 0.0019887928 0.3119940539 0
1.2033248934 -0.2363354001 0.1756317864 0
1.3090515945 -0.4305684236 -0.1156648211 0
1.1640141349 -0.1699459622 0.0177058574 0
1.6048859095 -0.2307322464 -0.0975150598 0
2.0486184786 0.1118688480 0.0844552458 1
1.8744146043 0.0362597024 0.0177173882 0
1.0788458794 -0.2798686230 -0.3062899457 0
1.2478970864 0.0851846031 0.2434150869 0
1.1364005231 0.2712927419 -0.3917144505 0
1.8322508931 -0.2633368763 -0.2218328320 1
1.6546695172 -0.3761864271 0.0498583417 0
1.4316057815 0.2940069649 -0.4099438651 0
1.8278966353 -0.1991479812 0.1006249572 0
1.0107886985 0.3685763954 0.2324875111 0
1.8299714594 -0.2389120890 0.2502665635 1
1.8792195162 0.1923638347 -0.3436642833 0
1.3473450229 -0.0306750524 -0.2379357330 0
1.3752611626 -0.0333955304 -0.2796791186 0
0.7977007670 -0.1217788564 0.1762773301 0
1.4811968695 0.2861501674 0.1377021499 0
1.1331016929 0.3565628386 0.2215430239 0
1.7593679969 -0.3288254312 0.1367080488 0
1.7997247647 0.1798399758 -0.0830212923 0
1.4018592516 0.1240357814 0.3568603109 0
1.9488669743 -0.2992716825 0.1235389252 0
0.7933165693 0.0011046065 0.0628332035 0
1.5515126251 0.2964823145 0.1442513370 0
1.8032105134 0.0447200145 0.0824524765 0
1.6904153979 -0.0738058143 0.4595083607 1
1.2685338039 0.0847454187 -0.4872224068 0
1.1543014316 0.0799274175 0.4885960191 0
1.7065755125 -0.2827532436 -0.1589880989 0
1.6381918419 -0.2143006368 -0.1065768788 0
1.0850670639 -0.0849791055 0.4092100550 0
1.0441049878 -0.1060435910 -0.3545527888 0
1.8363609683 -0.0152594132 -0.2984405002 1
1.8381463768 -0.2747890983 0.2229968032 1
1.2572058310 -0.3174578495 -0.0899215764 0
0.4915958873 0.1927780755 -0.4633948858 0
0.6540310086 -0.3137544024 -0.0258490603 0
0.4814755041 -0.2708663603 -0.3703796960 0
0.4638205674 0.2418848601 -0.2140810551 0
-0.2069867899 0.4026555413 0.2712759552 0
-0.7403650741 -0.2865778888 0.0616278629 0
-0.3415520093 -0.0932829002 -0.0486512250 0
-0.7358560865 0.1028321693 -0.2116884943 0
-0.5956612657 -0.4299915478 -0.0602891082 0
-0.4580962772 -0.1207678198 -0.1141365063 0
-0.7083208135 -0.2915728787 -0.0616921906 0
0.2227507563 -0.0857486476 -0.6081123869 1
0.0263787091 -0.2596008537 0.5230226701 0
-0.3647009711 -0.1479971115 0.0646870269 0
-0.7541910470 0.3349293765 -0.0741320576 0
0.3145467278 -0.2009975278 0.1326548266 0
-0.5410209127 0.0004145790 0.3734852624 0
0.3409340471 -0.1698800827 -0.2637717050 0
0.7303986265 -0.0255917867 -0.2983556351 0
0.1894645458 -0.2679503435 0.1551435378 0
-0.2302536968 0.0042958506 -0.0718372168 0
-0.6193977380 0.0902343231 0.0188728320 0
0.5707330500 -0.0952850056 -0.3311542668 0
-0.6355954091 -0.3194056069 0.0091965190 0
-0.5217547491 -0.2961443526 0.1414282321 0
0.1830657356 -0.0837730686 -0.1014521050 0
-0.2014829531 -0.3104216927 -0.3149990604 0
0.5625017851 -0.1016078432 -0.1617649653 0
-0.6902178177 -0.0416925845 -0.0519842955 0
0.1385442989 0.4497432981 -0.1817567083 0
-0.1790558884 -0.2612349792 -0.3340804265 0
0.0711337912 0.3792919909 -0.1589047268 0
0.7436487306 0.1359887580 -0.0996763143 0
-0.6946202681 0.0400422402 0.0399483825 0
-0.6512297688 -0.0476139636 -0.1104593956 0
-0.2872537874 0.0526871483 -0.0835063934 0
0.5081309062 -0.0387816523 0.1712167002 0
0.3126388888 -0.3822471853 -0.4053056883 0
0.3743704094 0.1004671586 -0.2942510939 0
-0.5057129900 0.0037316866 -0.4695530440 0
0.7899596445 -0.1867789083 0.1137036124 0
0.4412789879 -0.2912675039 0.4531386411 1
0.5770985507 -0.3873501182 0.1890599860 0
0.4068650156 0.4338612489 0.3181308957 0
0.0129854343 0.1716603724 -0.3210953395 0
0.6183558887 -0.0264843983 0.0301634076 0
0.6541520764 0.2097204393 0.1419061227 0
0.7148320695 0.2903130545 -0.0845356069 0
0.2099861275 -0.3218695249 0.1127838965 0
-0.2716583180 -0.2487173790 -0.4694731912 0
0.4785435479 0.0404832058 -0.1593848378 0
-0.0036742405 0.4561791516 0.1764123351 0
-0.0903575467 0.2855480256 -0.2399494557 0
-0.6184245007 0.2591552611 0.3198624262 0
0.1888282096 0.1494497714 0.1105953168 0
0.3236602141 0.4973922472 0.2429883690 0
0.3287667803 0.1569811325 0.0912855389 0
0.7724852865 -0.1537706964 0.1617066237 0
0.4989914901 0.5069414620 -0.1728431323 1
0.4060329787 -0.1188604628 0.1162199497 0
0.4379536900 -0.3463362810 -0.1223830072 0
0.6459322094 0.2378772849 0.1932198481 0
-0.7850289771 -0.0911940300 0.0250831729 0
-0.6048422485 0.2799732434 0.2692345223 0
0.3985806343 -0.4920165026 -0.2957707644 1
-0.1887523599 -0.1378446344 0.5653057709 0
-0.4371338062 0.0721160441 -0.0071761201 0
0.7546256683 0.3531847998 0.1016365272 1
0.0481164175 0.1775594738 -0.0072706701 0
0.0858538894 0.4551579356 -0.0910346278 0
0.1985730369 -0.1424661117 -0.4051897102 0
0.1985749815 -0.5155671766 -0.2954817989 0
-0.7226942084 -0.0836275484 0.3796193536 1
0.6291259102 -0.3586625013 0.1000696542 0
-0.3534398467 0.1475930047 0.3726379730 0
-0.2413065626 -0.1535452472 -0.0857220304 0
0.7510667236 0.3184740967 -0.0275688840 0
0.0605166359 -0.2126027349 0.5513379589 0
0.2961959986 0.3012128991 0.4964673241 1
0.5187760788 0.4255562838 -0.1385806676 0
0.1779543551 -0.5370660423 0.2941396087 1
0.5944501069 0.0700313984 0.0188020069 0
-0.2012506493 0.2375572899 -0.5842466173 1
-0.5530942639 -0.2612492904 -0.1718098888 0
0.7476863012 0.2035624848 -0.3010412758 1
-0.0485418408 -0.2886497568 0.1750970614 0
-0.7107256437 0.2456106317 -0.2800919698 0
0.7988132672 0.2658590417 0.0055356669 0
0.4275924054 0.4813159240 -0.1770037310 0
-0.3913444905 -0.2002219896 0.0712052041 0
0.7348701477 -0.1540074136 -0.1162665888 0
0.2828630782 -0.2729758441 -0.2496449909 0
-0.6212162571 -0.1657255586 -0.3024386256 0
0.4295897254 -0.5135690102 -0.0692865097 0
0.0842198716 -0.5694972781 -0.2245838085 0
-0.1502597693 0.0622052624 0.0827215178 0
0.4143579540 -0.3552162204 -0.3208080651 0
-0.4571622465 0.0399992779 0.0499559167 0
-0.2362682713 -0.3292805235 -0.2062760826 0
-0.1046434927 0.3146773991 -0.2227815108 0
0.0218270523 0.0813549541 -0.4037324635 0
0.2015191862 0.4050846979 -0.4656709296 1
-0.5701439943 0.3128497003 -0.1502144688 0
-0.3861003942 -0.5436318850 0.1477433298 1
-0.0108508040 -0.2471744556 0.4558868560 0
-0.4165293591 0.1850314128 0.0985012549 0
-0.5990566050 0.0975867326 0.1379646334 0
0.2279395483 0.1472904435 0.3241815074 0
0.6368043489 -0.3592188288 0.0613269602 0
-0.5200957522 0.0377803855 0.0980105503 0
-0.5251085167 -0.0404265742 0.2159628687 0
-0.6564674570 0.2170170740 0.2135527090 0
-0.4707408493 -0.2588724637 0.2947195307 0
0.3001393859 0.5259523859 0.1325401705 0
0.2100701010 0.5155054058 0.2894023130 0
0.6774846723 0.2203855023 0.0889704625 0
0.4899738108 -0.0090837672 -0.2361950264 0
-0.4665672062 -0.2652913360 0.2766715957 0
0.1894908841 -0.2900031702 0.3155839533 0
0.3983860092 0.2823188544 0.0562952571 0
0.8487016666 0.3666723272 -0.2902635407 0
0.1314535847 0.3434827872 0.2740091815 0
0.1294018515 0.0232081556 0.3335065739 0
-0.4925487774 0.2993027280 0.0368232643 0
-1.1561488561 -0.0997125582 0.1907440634 0
1.5621243531 -0.3420681812 -0.2235765930 0
1.1614327251 -0.1903891332 -0.0109786992 0
0.1530977668 -0.4789266237 -0.2877407741 0
-0.2792123802 0.2188519356 0.2380800089 0
-0.5438750386 -0.2370047427 -0.3184024868 0
-0.5783443186 0.3856018042 -0.0399775383 0
-1.0501760335 0.1993207307 0.1512071789 0
-1.0155711846 0.1421112076 0.2397873586 0
-0.8604119731 0.2845484131 0.5402214027 0
-1.6812814286 -0.2845192197 -0.0443464066 0
1.9380730100 0.0986750138 0.0815397098 0
1.8852375847 0.1703448179 -0.1965065402 1
-0.9631891684 0.2479190577 0.4716931362 0
1.7208935859 -0.2992463737 -0.0997992418 0
-0.8831122000 0.0379782911 -0.2768912872 0
-0.6987743479 -0.2571720002 0.1342598437 0
-1.0341281597 0.3765510797 0.3258769315 0
-0.8354108508 -0.2219833202 -0.1265039114 0
-0.0745161911 -0.1510208036 -0.0348226568 0
-0.6475808177 0.0719045888 0.0794210250 0
1.9625241933 -0.0599663693 0.1384162108 1
-0.9764571425 -0.2375199939 -0.5162465074 0
0.3900616307 -0.3687909559 0.0650270218 0
-0.5978859631 0.3969820981 -0.1846439100 0
1.8709326544 0.1817123566 0.1879431366 0
1.7536468929 0.0439695731 0.1000807409 0
0.9670217759 -0.5245592046 -0.2610901677 0
-1.4427352571 0.0650439475 -0.2420641793 0
-1.3552080115 0.2783589428 0.4430433024 0
0.6596826147 -0.2653476645 -0.0369878079 0
1.5128808493 -0.3654912985 0.2935546659 0
-0.2442959743 -0.3014930955 0.2943501799 0
-0.7864517755 -0.0013163898 -0.2473777666 0
-1.0678348131 0.3226412596 -0.2305408311 0
0.1677272847 0.4200485500 -0.2817458341 0
-1.5350509206 0.3820641980 -0.1443805030 0
-0.6602711835 0.2560278934 0.3132801427 0
0.4814947896 -0.4880254928 -0.1040909353 0
1.1455850311 0.2046014987 0.2845386829 0
-0.9995946770 -0.0010931633 -0.1178668816 0
0.2734372483 0.0438676431 -0.5768235121 0
-0.6345756224 0.0696064341 -0.1304606637 0
1.3877825246 0.2428721524 0.2589813087 0
1.1951646206 0.1701181628 0.2374140919 0
0.8890837145 -0.1010643926 -0.5066196726 0
0.7751890371 -0.1758913983 -0.0533996509 0
-0.6194033175 0.1908362153 0.4066015721 1
0.3422019983 -0.3320236286 0.2382139098 0
1.7937963126 0.1536960709 0.2225954808 0
0.0159264340 -0.0605472651 -0.0591077288 0
1.5012866322 0.3615373029 -0.1646446093 0
0.7943138453 0.2775635808 -0.1313453075 0
-1.3838019972 -0.3861025095 -0.2003811019 0
-0.2995855094 -0.0526562812 -0.5885415234 1
1.7022571793 -0.1382314463 0.0415718346 0
1.9428467331 0.0429499934 -0.0606404283 0
1.6907551809 0.2110672961 -0.2321124579 0
0.3615176314 -0.1200524777 0.0810941178 0
-0.6598197710 0.0174699516 -0.0255611203 0
-0.6711242474 -0.2507046441 0.1995973087 0
1.6823329542 -0.1493712384 0.2094101727 0
0.9481439586 -0.2865202387 0.0998094878 0
-0.1825257178 0.1659188696 0.2001639178 0
-0.0058244778 -0.5515989034 0.3047887057 1
-0.5511624165 -0.3555696158 -0.2038724927 0
-1.9450541731 -0.0440926096 -0.0744555096 0
1.8299199588 0.1224554188 0.1746486017 0
-1.6502950316 0.3194519446 -0.0093306849 0
0.3838839406 0.4547304431 0.2076105764 0
-1.1565472262 0.2312805690 -0.1683221406 0
-1.2382674861 0.4005854103 0.0905376716 0
0.2582321386 0.5007213000 0.2230968754 0
-0.1908605558 -0.4082768575 -0.0655707182 0
-0.3970545930 -0.2149858151 -0.0952091575 0
-1.2678672510 0.3791679890 -0.4450586501 1
-0.5064277813 -0.0526616242 0.4136006791 0
-0.3677085790 0.2331929728 0.0306043205 0
0.8653567051 -0.0646413136 -0.0874899600 0
-1.1122895597 0.0529552303 0.5166527150 0
-1.9248308069 0.1604139784 0.1271061268 1
-1.2800781650 -0.1715012837 -0.2372664666 0
-1.6000903465 0.0210844788 0.4113246507 0
1.4209507332 0.1649756735 -0.3061817288 0
0.6669798512 0.0515935101 0.2299617017 0
1.5898629483 0.1314200160 0.0066787885 0
Tetrahedra
1714
169 224 47 156 1
246 81 67 276 1
290 237 269 173 1
283 295 35 1 1
283 295 9 1 1
247 194 279 156 1
32 295 9 1 1
277 59 261 242 1
176 247 194 279 1
232 95 224 154 1
232 95 221 154 1
205 95 169 224 1
205 232 95 224 1
236 65 67 276 1
236 81 240 57 1
236 65 67 77 1
236 81 77 57 1
236 81 67 77 1
244 283 35 1 1
244 294 224 1 1
103 247 279 156 1
89 81 67 77 1
89 246 81 67 1
89 65 67 77 1
88 68 62 57 1
229 51 65 62 1
229 63 62 77 1
229 65 62 77 1
73 79 240 47 1
293 277 59 261 1
130 290 269 173 1
130 290 237 269 1
4 237 269 173 1
4 290 237 173 1
29 290 27 21 1
36 120 149 204 1
36 205 35 204 1
36 205 232 35 1
36 29 290 35 1
22 29 27 21 1
22 295 7 21 1
22 29 35 21 1
22 29 283 35 1
22 295 35 21 1
22 283 295 35 1
256 102 82 173 1
260 256 91 82 1
260 256 102 82 1
203 247 194 156 1
144 95 224 154 1
52 246 81 276 1
90 277 59 242 1
264 81 240 47 1
264 79 240 47 1
264 236 81 240 1
227 240 68 57 1
142 232 95 221 1
142 205 232 95 1
142 36 232 221 1
142 36 205 232 1
142 95 221 190 1
38 244 12 294 1
168 169 47 156 1
195 103 247 156 1
195 168 103 156 1
195 176 247 279 1
195 103 247 279 1
74 246 63 77 1
74 89 246 77 1
74 89 65 77 1
74 246 63 276 1
74 229 63 77 1
74 229 65 77 1
74 246 67 276 1
74 89 246 67 1
74 65 67 276 1
74 89 65 67 1
179 120 149 204 1
86 52 81 47 1
86 52 246 81 1
134 205 169 47 1
288 176 247 194 1
288 194 279 185 1
288 176 194 279 1
288 189 218 185 1
239 36 120 204 1
239 142 205 204 1
239 36 205 204 1
239 142 36 221 1
239 142 36 205 1
286 36 232 221 1
286 239 36 221 1
286 244 232 35 1
286 36 232 35 1
286 244 283 35 1
286 36 283 35 1
251 29 283 35 1
251 36 283 35 1
251 36 29 35 1
251 22 29 283 1
251 286 36 283 1
251 36 29 290 1
105 286 232 221 1
105 286 239 221 1
128 260 102 242 1
113 256 129 91 1
113 260 256 91 1
113 260 256 102 1
191 256 129 161 1
191 256 102 161 1
191 256 102 173 1
191 102 269 173 1
143 191 135 173 1
192 256 129 91 1
192 191 256 129 1
192 191 135 129 1
192 179 149 91 1
192 179 120 149 1
192 191 256 173 1
192 191 135 173 1
192 143 135 173 1
192 256 82 173 1
192 64 82 173 1
192 256 91 82 1
192 143 190 173 1
192 239 290 173 1
192 36 290 149 1
192 36 120 149 1
192 239 190 173 1
192 239 120 190 1
192 239 36 290 1
192 239 36 120 1
213 110 176 265 1
213 168 169 156 1
213 195 168 156 1
30 225 32 39 1
44 32 295 9 1
44 22 295 7 1
44 283 295 9 1
44 22 283 295 1
16 225 32 39 1
262 144 95 224 1
99 288 194 185 1
291 203 247 156 1
291 294 224 156 1
291 262 224 156 1
76 52 81 47 1
76 264 81 47 1
76 52 81 276 1
76 264 81 276 1
300 76 52 276 1
216 242 63 62 1
216 229 63 62 1
216 260 62 82 1
216 260 242 62 1
216 260 59 82 1
216 260 59 242 1
216 88 62 82 1
216 88 51 62 1
217 293 277 59 1
217 90 277 59 1
217 50 90 59 1
282 81 67 276 1
282 264 81 276 1
282 236 67 276 1
282 236 81 67 1
282 264 236 81 1
282 264 236 240 1
271 88 68 57 1
271 227 68 57 1
271 227 88 68 1
271 88 62 57 1
271 62 77 57 1
271 236 77 57 1
271 88 51 62 1
271 65 62 77 1
271 236 65 77 1
271 51 65 62 1
159 143 122 190 1
159 143 122 135 1
159 122 135 129 1
18 168 103 156 1
18 103 279 156 1
18 194 279 156 1
18 194 279 39 1
18 294 39 1 1
18 203 194 156 1
132 168 246 81 1
132 86 246 81 1
132 103 246 279 1
132 168 103 246 1
132 213 168 169 1
66 73 205 47 1
66 134 205 47 1
66 134 169 47 1
66 146 73 205 1
66 146 134 205 1
87 217 293 59 1
87 217 50 59 1
87 217 50 293 1
87 260 59 82 1
61 50 298 48 1
61 192 91 82 1
61 192 64 82 1
61 260 91 82 1
61 87 260 82 1
61 87 50 82 1
170 179 149 204 1
183 257 98 130 1
183 257 130 100 1
140 191 102 269 1
140 191 102 161 1
140 237 162 185 1
140 218 162 185 1
140 128 237 162 1
140 128 102 161 1
140 128 218 161 1
140 128 218 162 1
140 102 237 269 1
140 128 102 237 1
289 288 189 166 1
289 97 166 100 1
289 99 288 194 1
160 239 120 190 1
160 122 120 190 1
160 142 221 190 1
160 239 221 190 1
160 239 142 221 1
160 239 120 204 1
160 239 142 204 1
160 159 142 190 1
160 159 122 190 1
234 288 166 176 1
234 110 176 265 1
234 288 189 166 1
234 288 189 218 1
234 288 218 185 1
34 130 290 237 1
34 4 290 237 1
34 296 4 237 1
34 296 20 4 1
40 38 244 232 1
40 286 244 232 1
40 244 283 1 1
40 286 244 283 1
124 105 257 98 1
177 257 98 130 1
177 34 290 249 1
177 34 130 290 1
177 130 290 173 1
177 239 290 173 1
177 239 130 173 1
6 36 290 249 1
181 293 59 261 1
181 87 293 59 1
181 59 261 242 1
181 260 59 242 1
175 170 149 91 1
175 61 87 260 1
175 87 50 293 1
175 61 87 50 1
250 192 179 120 1
250 122 135 129 1
250 192 135 129 1
250 122 120 190 1
250 192 120 190 1
250 143 122 135 1
250 192 143 135 1
250 143 122 190 1
250 192 143 190 1
182 128 218 161 1
182 128 218 162 1
182 151 218 162 1
184 218 162 185 1
184 151 218 162 1
93 128 260 242 1
93 181 260 242 1
93 181 113 260 1
93 128 260 102 1
93 113 260 102 1
93 128 102 161 1
93 256 102 161 1
93 113 256 161 1
93 113 256 102 1
171 132 103 279 1
171 132 246 279 1
171 242 279 185 1
171 184 242 185 1
278 195 247 156 1
278 213 195 156 1
209 213 195 168 1
209 195 168 103 1
209 132 213 168 1
209 213 195 176 1
209 213 110 176 1
209 132 168 103 1
209 213 110 106 1
209 132 213 106 1
209 171 110 176 1
209 171 132 103 1
209 195 103 279 1
209 171 103 279 1
209 195 176 279 1
209 171 176 279 1
10 30 225 32 1
10 44 32 9 1
10 44 225 32 1
10 44 283 9 1
10 44 22 283 1
281 44 32 295 1
281 295 7 17 1
281 44 295 7 1
281 16 32 17 1
281 44 225 32 1
281 16 225 32 1
281 16 44 225 1
223 40 38 232 1
163 291 294 224 1
163 291 262 224 1
163 291 294 156 1
163 18 294 156 1
163 18 12 294 1
163 291 203 156 1
163 18 203 156 1
241 282 236 276 1
241 282 264 276 1
241 282 300 264 1
241 76 264 276 1
241 300 76 276 1
241 76 264 79 1
241 300 264 79 1
241 300 76 79 1
272 227 88 68 1
272 300 298 51 1
272 64 88 68 1
272 64 298 88 1
56 90 246 63 1
56 85 229 63 1
56 216 229 63 1
56 246 63 276 1
56 216 85 51 1
84 216 229 62 1
84 229 51 62 1
84 85 229 51 1
84 216 51 62 1
84 216 85 51 1
84 56 85 229 1
84 56 216 229 1
84 56 216 85 1
53 86 52 246 1
53 52 246 276 1
53 86 277 246 1
53 56 246 276 1
53 217 90 277 1
53 56 90 246 1
226 271 227 57 1
226 236 240 57 1
226 282 236 240 1
226 271 236 57 1
60 76 52 47 1
60 259 76 47 1
60 53 86 52 1
60 300 76 52 1
258 73 79 47 1
258 264 79 47 1
258 76 264 47 1
258 76 264 79 1
258 259 73 48 1
258 60 259 76 1
258 60 300 76 1
55 217 50 293 1
55 259 50 293 1
55 217 293 277 1
55 53 86 277 1
55 53 217 277 1
55 60 53 86 1
55 60 300 52 1
55 60 53 52 1
55 53 217 90 1
55 53 56 90 1
284 170 149 204 1
254 66 73 47 1
254 66 259 73 1
254 258 73 47 1
254 258 259 73 1
254 259 76 47 1
254 258 76 47 1
254 258 259 76 1
254 60 259 47 1
254 60 259 86 1
49 61 64 82 1
49 61 64 298 1
49 64 298 88 1
49 61 50 82 1
49 61 50 298 1
49 88 68 82 1
49 64 68 82 1
49 64 88 68 1
46 61 50 48 1
46 259 73 48 1
46 259 50 48 1
46 259 50 293 1
46 66 259 73 1
46 66 149 204 1
46 66 146 204 1
46 66 146 73 1
46 146 205 204 1
46 146 73 205 1
46 73 79 48 1
46 73 205 79 1
210 170 179 204 1
210 284 170 204 1
210 179 120 204 1
210 160 122 120 1
210 160 159 122 1
210 160 120 204 1
108 256 129 161 1
108 113 256 161 1
108 113 256 129 1
108 93 113 161 1
108 182 128 161 1
108 93 128 161 1
71 55 86 277 1
71 254 259 86 1
71 60 259 86 1
71 55 60 86 1
280 99 101 174 1
280 183 101 174 1
280 289 99 174 1
280 99 237 185 1
280 140 237 185 1
280 289 288 189 1
280 289 99 288 1
280 288 189 185 1
280 99 288 185 1
248 183 257 98 1
248 183 130 237 1
248 183 98 130 1
248 177 98 130 1
220 280 289 174 1
220 280 289 189 1
220 289 174 100 1
220 280 183 174 1
220 183 174 100 1
220 280 183 237 1
220 280 140 237 1
220 183 130 100 1
220 140 130 100 1
220 183 130 237 1
220 130 237 269 1
220 140 237 269 1
220 140 130 269 1
114 289 174 100 1
114 99 101 174 1
114 289 99 174 1
115 289 99 194 1
115 114 289 99 1
214 95 221 190 1
214 95 221 154 1
214 219 95 154 1
208 203 247 194 1
208 115 247 194 1
121 234 189 166 1
121 234 166 265 1
121 289 189 166 1
121 140 191 269 1
121 140 191 161 1
121 191 161 265 1
121 234 189 218 1
121 289 166 100 1
121 140 130 269 1
121 140 218 161 1
121 182 218 161 1
121 182 234 218 1
121 140 130 100 1
121 220 140 100 1
121 220 289 100 1
297 38 244 12 1
297 40 38 12 1
297 40 38 244 1
297 40 244 1 1
297 244 294 1 1
297 244 12 294 1
297 18 294 1 1
297 18 12 294 1
297 18 39 1 1
297 18 30 39 1
297 32 39 1 1
297 30 32 39 1
297 32 9 1 1
297 30 32 9 1
107 163 291 262 1
274 124 257 98 1
45 177 105 239 1
45 177 290 249 1
45 177 239 290 1
45 177 105 98 1
45 6 36 249 1
45 105 286 239 1
45 36 290 249 1
45 239 36 290 1
45 286 239 36 1
45 6 286 36 1
243 296 20 4 1
243 11 296 4 1
243 251 22 283 1
14 4 27 17 1
14 27 21 17 1
14 7 21 17 1
14 281 7 17 1
14 281 44 17 1
14 281 44 7 1
14 44 22 7 1
14 22 27 21 1
14 22 7 21 1
139 182 151 106 1
139 182 151 218 1
139 184 151 218 1
139 209 171 110 1
139 171 184 185 1
139 182 234 218 1
139 184 218 185 1
139 171 110 176 1
139 234 218 185 1
139 171 279 185 1
139 171 176 279 1
139 234 288 185 1
139 288 279 185 1
139 288 176 279 1
139 234 288 176 1
139 234 110 176 1
155 182 128 162 1
155 182 151 162 1
155 184 151 162 1
155 128 162 242 1
155 162 242 185 1
155 184 242 185 1
155 184 162 185 1
155 93 128 242 1
92 93 181 242 1
92 181 261 242 1
92 277 261 242 1
212 278 142 95 1
212 278 159 142 1
212 205 95 169 1
212 142 205 95 1
212 134 205 169 1
212 146 134 205 1
212 284 146 134 1
212 160 142 204 1
212 160 159 142 1
196 278 188 219 1
196 214 219 154 1
292 142 95 190 1
292 278 142 95 1
292 159 142 190 1
292 278 159 142 1
292 214 95 190 1
292 278 219 95 1
292 196 278 219 1
292 214 219 95 1
292 196 214 219 1
292 214 221 190 1
165 278 213 156 1
165 213 169 156 1
165 278 219 95 1
165 212 278 95 1
165 212 278 213 1
165 169 224 156 1
165 95 169 224 1
165 212 95 169 1
165 212 213 169 1
165 262 224 156 1
165 262 95 224 1
165 291 262 156 1
165 262 144 95 1
165 291 247 156 1
165 278 247 156 1
165 107 291 262 1
165 144 95 154 1
165 219 95 154 1
165 107 262 144 1
165 196 219 154 1
104 165 278 247 1
104 208 203 247 1
104 188 97 100 1
104 289 97 166 1
104 234 166 176 1
104 289 97 100 1
19 30 32 9 1
19 10 32 9 1
19 10 30 32 1
19 297 30 9 1
19 297 9 1 1
19 297 18 30 1
19 283 9 1 1
19 10 283 9 1
19 297 40 1 1
19 10 30 225 1
28 10 44 225 1
28 19 10 225 1
268 99 237 185 1
268 5 296 237 1
268 99 194 185 1
268 296 4 237 1
268 18 99 194 1
268 11 296 4 1
268 28 16 225 1
268 16 194 39 1
268 18 194 39 1
268 16 225 39 1
268 18 225 39 1
268 28 11 16 1
268 5 11 296 1
268 28 5 11 1
228 223 38 232 1
228 163 294 224 1
228 244 232 224 1
228 38 244 232 1
228 244 294 224 1
228 38 244 294 1
252 232 224 154 1
252 144 224 154 1
252 262 144 224 1
252 228 262 224 1
15 38 12 294 1
15 40 38 12 1
15 223 40 38 1
230 177 34 249 1
230 34 296 237 1
230 5 296 237 1
230 248 177 98 1
230 45 177 98 1
230 34 130 237 1
230 177 34 130 1
230 248 130 237 1
230 248 177 130 1
80 236 65 276 1
80 241 65 276 1
80 241 236 276 1
80 241 282 236 1
80 226 282 236 1
266 272 64 68 1
266 272 64 298 1
266 300 79 48 1
266 272 227 68 1
266 61 298 48 1
266 61 64 298 1
266 300 298 48 1
266 272 300 298 1
266 46 149 204 1
266 46 61 48 1
266 46 61 64 1
266 227 240 68 1
266 240 68 57 1
266 46 79 48 1
75 266 79 240 1
75 266 227 240 1
75 266 272 227 1
75 264 79 240 1
75 300 264 79 1
75 266 300 79 1
75 266 272 300 1
75 282 264 240 1
75 282 300 264 1
75 272 300 51 1
75 227 240 57 1
75 226 240 57 1
75 226 227 57 1
75 226 282 240 1
75 80 226 282 1
75 226 271 227 1
75 241 282 300 1
75 80 241 282 1
75 272 88 51 1
75 272 227 88 1
75 241 300 51 1
75 80 241 51 1
75 271 88 51 1
75 271 227 88 1
54 56 90 63 1
54 56 216 63 1
54 56 216 90 1
54 216 242 63 1
54 246 242 63 1
54 90 246 63 1
54 90 59 242 1
54 216 59 242 1
54 216 90 59 1
54 53 90 246 1
54 277 246 242 1
54 53 277 246 1
54 90 277 242 1
54 53 90 277 1
69 217 50 90 1
69 56 216 90 1
69 55 217 90 1
69 55 56 90 1
69 55 217 50 1
69 50 90 59 1
69 50 298 48 1
69 55 56 300 1
69 49 50 298 1
69 56 300 51 1
69 300 298 48 1
69 60 300 48 1
69 55 60 300 1
69 259 50 48 1
69 60 259 48 1
69 55 259 50 1
69 55 60 259 1
270 53 56 276 1
270 300 52 276 1
270 53 52 276 1
270 55 56 300 1
270 55 53 56 1
270 241 300 276 1
270 56 63 276 1
270 56 85 63 1
270 56 85 51 1
270 56 300 51 1
270 55 300 52 1
270 55 53 52 1
270 241 300 51 1
270 241 65 276 1
270 74 63 276 1
270 74 65 276 1
270 85 229 63 1
270 229 51 65 1
270 85 229 51 1
270 80 241 65 1
270 80 241 51 1
270 74 229 63 1
270 74 229 65 1
72 300 76 79 1
72 258 76 79 1
72 258 300 76 1
72 300 79 48 1
72 73 79 48 1
72 258 73 48 1
72 258 73 79 1
72 60 300 48 1
72 258 60 300 1
72 60 259 48 1
72 258 259 48 1
72 258 60 259 1
158 66 149 204 1
158 284 149 204 1
158 66 146 204 1
158 284 146 204 1
158 284 170 149 1
158 66 146 134 1
158 284 146 134 1
158 46 66 149 1
158 210 284 170 1
83 254 66 47 1
83 66 169 47 1
83 86 52 47 1
83 60 52 47 1
83 254 60 47 1
83 60 86 52 1
83 254 60 86 1
83 168 169 47 1
83 132 168 169 1
83 86 81 47 1
83 132 86 81 1
83 168 81 47 1
83 132 168 81 1
178 158 46 66 1
178 46 259 293 1
178 46 66 259 1
178 254 66 259 1
211 46 61 64 1
211 192 64 149 1
211 61 192 64 1
211 266 64 149 1
211 266 46 149 1
211 266 46 64 1
211 192 149 91 1
211 61 192 91 1
211 175 149 91 1
211 175 170 149 1
211 175 170 138 1
211 61 260 91 1
211 175 260 91 1
211 175 61 260 1
198 212 213 169 1
198 132 213 169 1
198 127 132 213 1
198 212 134 169 1
198 212 284 134 1
94 250 179 120 1
94 210 179 120 1
94 250 122 120 1
94 210 122 120 1
94 250 122 129 1
94 210 170 179 1
94 159 122 129 1
94 210 159 122 1
94 192 129 91 1
94 250 192 129 1
94 192 179 91 1
94 250 192 179 1
94 210 170 138 1
94 175 170 91 1
94 179 149 91 1
94 170 149 91 1
94 170 179 149 1
94 175 170 138 1
131 293 277 261 1
131 71 293 277 1
131 92 277 261 1
96 114 99 101 1
96 268 18 99 1
96 18 99 194 1
117 220 289 189 1
117 121 289 189 1
117 121 220 289 1
117 121 220 140 1
117 220 280 189 1
117 220 280 140 1
117 280 189 185 1
117 280 140 185 1
117 189 218 185 1
117 121 189 218 1
117 140 218 185 1
117 121 140 218 1
116 121 234 265 1
116 121 182 234 1
116 139 182 234 1
116 121 161 265 1
116 121 182 161 1
116 234 110 265 1
116 139 234 110 1
116 139 182 106 1
116 108 182 161 1
116 139 110 106 1
116 108 129 161 1
116 182 151 106 1
116 191 161 265 1
116 191 129 161 1
116 191 135 265 1
116 191 135 129 1
116 159 135 265 1
116 159 135 129 1
231 96 114 99 1
125 183 257 100 1
125 183 174 100 1
125 248 183 257 1
125 183 101 174 1
125 248 257 98 1
125 114 174 100 1
125 114 101 174 1
112 274 124 257 1
112 124 105 257 1
112 214 105 221 1
42 45 177 249 1
42 230 177 249 1
42 230 45 177 1
42 230 45 98 1
42 230 34 249 1
8 45 6 286 1
8 45 6 249 1
8 42 45 249 1
37 251 36 290 1
37 6 36 290 1
13 243 251 22 1
13 22 29 27 1
13 251 22 29 1
13 14 22 27 1
13 14 243 22 1
13 37 243 251 1
13 29 290 27 1
13 251 29 290 1
13 14 4 27 1
13 14 243 4 1
13 37 251 290 1
13 37 20 290 1
13 243 20 4 1
13 37 243 20 1
13 34 20 290 1
13 34 20 4 1
13 4 290 27 1
13 34 4 290 1
33 10 22 283 1
33 243 22 283 1
33 14 243 22 1
33 14 243 11 1
33 28 19 10 1
33 10 44 22 1
33 14 44 22 1
33 28 10 44 1
2 243 11 4 1
2 14 243 4 1
2 14 243 11 1
2 14 4 17 1
2 16 4 17 1
2 14 44 17 1
2 268 16 4 1
2 268 11 4 1
2 268 11 16 1
2 33 14 44 1
2 33 14 11 1
2 281 44 17 1
2 281 16 17 1
2 281 16 44 1
2 28 11 16 1
2 33 28 44 1
2 33 28 11 1
2 16 44 225 1
2 28 44 225 1
2 28 16 225 1
118 93 181 113 1
118 108 93 113 1
118 108 93 151 1
133 171 132 246 1
133 171 184 242 1
133 86 277 246 1
133 132 86 246 1
133 277 246 242 1
133 171 246 242 1
187 155 182 128 1
187 155 93 128 1
187 108 182 128 1
187 108 93 128 1
187 155 182 151 1
187 108 182 151 1
187 108 93 151 1
253 155 184 151 1
253 187 155 151 1
253 155 184 242 1
253 133 184 242 1
253 92 93 151 1
253 187 93 151 1
253 187 155 93 1
253 155 93 242 1
253 92 93 242 1
273 118 108 151 1
273 116 151 106 1
273 108 182 151 1
273 116 182 151 1
273 116 108 182 1
145 212 278 213 1
145 212 278 159 1
145 198 212 213 1
145 273 198 213 1
145 210 160 159 1
145 212 160 159 1
145 116 159 265 1
145 210 160 204 1
145 212 160 204 1
145 212 210 204 1
145 273 213 106 1
145 273 116 106 1
145 213 110 265 1
145 213 110 106 1
145 116 110 265 1
145 116 110 106 1
287 146 205 204 1
287 212 146 205 1
287 142 205 204 1
287 212 142 204 1
287 212 142 205 1
287 284 146 204 1
287 212 284 146 1
287 210 284 204 1
287 212 210 204 1
287 212 210 284 1
197 165 196 154 1
197 112 196 214 1
197 165 144 154 1
197 165 107 144 1
126 159 143 190 1
126 257 130 100 1
126 97 166 100 1
126 121 166 100 1
126 121 130 100 1
126 143 191 135 1
126 121 130 269 1
126 130 269 173 1
126 143 130 173 1
126 191 269 173 1
126 143 191 173 1
193 292 214 221 1
193 239 221 190 1
193 292 221 190 1
193 105 239 221 1
193 112 214 221 1
193 126 292 190 1
193 112 105 221 1
193 112 105 257 1
193 177 105 239 1
193 126 257 130 1
193 177 239 130 1
193 177 257 130 1
193 105 257 98 1
193 177 257 98 1
193 177 105 98 1
193 239 190 173 1
193 239 130 173 1
193 126 143 190 1
193 126 143 130 1
193 143 190 173 1
193 143 130 173 1
201 278 188 219 1
201 165 278 219 1
201 196 188 219 1
201 165 196 219 1
201 104 278 188 1
201 104 165 278 1
201 197 165 107 1
201 197 165 196 1
201 165 107 291 1
201 104 208 203 1
201 165 291 247 1
201 104 165 247 1
201 163 291 203 1
201 107 163 291 1
201 291 203 247 1
201 104 203 247 1
201 197 107 163 1
180 104 289 100 1
180 114 289 100 1
180 115 114 289 1
180 201 208 115 1
180 201 104 208 1
180 289 288 194 1
180 115 289 194 1
180 289 288 166 1
180 104 289 166 1
180 208 115 247 1
180 104 208 247 1
180 288 166 176 1
180 104 166 176 1
180 288 247 194 1
180 115 247 194 1
180 288 176 247 1
180 104 176 247 1
25 228 163 294 1
25 163 12 294 1
25 252 228 262 1
25 163 262 224 1
25 228 262 224 1
25 228 163 224 1
31 25 223 124 1
31 252 232 154 1
31 228 223 232 1
31 232 221 154 1
31 105 221 154 1
31 105 232 221 1
31 228 232 224 1
31 252 232 224 1
31 252 228 224 1
31 105 286 232 1
31 45 105 286 1
31 8 45 286 1
215 25 163 12 1
58 226 271 236 1
58 80 226 236 1
58 271 236 65 1
58 80 236 65 1
58 75 226 271 1
58 75 80 226 1
58 270 80 65 1
58 75 271 51 1
58 75 80 51 1
58 271 51 65 1
58 270 51 65 1
58 270 80 51 1
70 216 90 59 1
70 69 90 59 1
70 69 216 90 1
70 216 59 82 1
70 69 50 59 1
70 216 88 82 1
70 87 59 82 1
70 87 50 82 1
70 87 50 59 1
70 49 50 82 1
70 69 49 50 1
70 49 88 82 1
70 216 88 51 1
70 49 298 88 1
70 69 49 298 1
70 56 216 51 1
70 69 56 51 1
70 69 56 216 1
70 272 88 51 1
70 272 298 51 1
70 272 298 88 1
70 300 298 51 1
70 69 300 51 1
70 69 300 298 1
152 210 284 134 1
152 158 284 134 1
152 158 210 284 1
152 198 134 169 1
152 66 134 169 1
152 158 66 134 1
152 83 66 169 1
167 178 158 46 1
167 158 170 149 1
167 211 170 149 1
167 211 170 138 1
167 158 46 149 1
167 211 46 149 1
267 211 46 61 1
267 46 61 50 1
267 167 178 46 1
267 167 211 46 1
267 46 50 293 1
267 178 46 293 1
267 175 61 50 1
267 211 175 61 1
267 167 178 138 1
267 167 211 138 1
267 175 50 293 1
267 211 175 138 1
148 133 127 132 1
148 131 71 277 1
148 133 131 277 1
148 71 132 86 1
148 133 132 86 1
148 71 86 277 1
148 133 86 277 1
275 163 18 12 1
275 215 163 12 1
275 163 18 203 1
275 18 203 194 1
275 201 163 203 1
275 96 18 194 1
275 201 208 203 1
275 96 99 194 1
275 231 96 99 1
275 208 203 194 1
275 208 115 194 1
275 115 99 194 1
275 201 208 115 1
275 201 231 115 1
275 115 114 99 1
275 231 114 99 1
275 231 115 114 1
119 274 124 98 1
119 125 248 98 1
119 274 257 98 1
119 125 257 98 1
119 125 274 257 1
119 201 231 124 1
119 96 114 101 1
119 231 96 114 1
119 125 114 101 1
119 231 115 114 1
119 125 114 100 1
119 125 274 100 1
119 180 114 100 1
119 180 115 114 1
123 136 181 293 1
123 118 136 181 1
123 267 175 293 1
123 267 175 138 1
123 94 175 138 1
123 267 178 293 1
123 267 178 138 1
207 94 175 91 1
207 113 129 91 1
207 94 129 91 1
207 108 113 129 1
207 118 108 113 1
245 118 136 181 1
245 136 181 261 1
245 92 181 261 1
245 92 93 181 1
245 118 93 181 1
245 131 136 261 1
245 131 92 261 1
245 92 93 151 1
245 118 93 151 1
245 148 131 136 1
238 139 171 184 1
238 133 171 184 1
238 139 151 106 1
238 139 184 151 1
238 253 184 151 1
238 273 151 106 1
238 245 92 151 1
147 145 273 198 1
147 145 273 116 1
147 152 198 127 1
147 145 212 210 1
147 145 198 212 1
147 152 210 134 1
147 152 198 134 1
147 212 210 284 1
147 198 212 284 1
147 116 159 129 1
147 145 116 159 1
147 210 284 134 1
147 198 284 134 1
147 94 159 129 1
147 94 210 159 1
147 145 210 159 1
202 252 144 154 1
202 197 144 154 1
202 31 252 154 1
202 252 262 144 1
202 31 105 154 1
202 31 25 252 1
202 107 262 144 1
202 197 107 144 1
202 25 252 262 1
202 31 124 105 1
202 31 25 124 1
202 107 163 262 1
202 197 107 163 1
202 25 163 262 1
202 25 197 163 1
202 105 221 154 1
202 214 221 154 1
202 214 105 221 1
202 196 214 154 1
202 197 196 154 1
202 197 196 214 1
202 112 214 105 1
202 197 112 214 1
200 112 274 188 1
200 119 274 124 1
200 119 201 124 1
200 197 112 196 1
200 201 196 188 1
200 201 197 196 1
200 274 188 100 1
200 119 274 100 1
200 119 180 100 1
200 201 104 188 1
200 180 201 104 1
200 180 201 115 1
200 119 180 115 1
200 104 188 100 1
200 180 104 100 1
200 201 231 115 1
200 119 231 115 1
200 119 201 231 1
186 292 159 190 1
186 126 159 190 1
186 126 292 190 1
186 292 278 159 1
186 292 196 278 1
186 126 292 196 1
186 196 278 188 1
186 145 213 265 1
186 145 159 265 1
186 145 278 213 1
186 145 278 159 1
186 104 278 188 1
186 213 176 265 1
186 234 176 265 1
186 104 234 176 1
186 104 188 97 1
186 213 195 176 1
186 278 213 195 1
186 104 176 247 1
186 104 278 247 1
186 104 234 166 1
186 195 176 247 1
186 278 195 247 1
157 126 292 196 1
157 292 196 214 1
157 186 196 188 1
157 186 126 188 1
157 186 126 196 1
157 112 196 214 1
157 126 257 100 1
157 193 126 257 1
157 193 126 292 1
157 200 196 188 1
157 200 112 188 1
157 200 112 196 1
157 112 274 257 1
157 112 274 188 1
157 125 257 100 1
157 188 97 100 1
157 126 97 100 1
157 126 188 97 1
157 193 292 214 1
157 193 112 257 1
157 193 112 214 1
157 125 274 257 1
157 274 188 100 1
157 125 274 100 1
3 25 228 294 1
3 228 38 294 1
3 228 223 38 1
3 31 228 223 1
3 31 25 223 1
3 15 38 294 1
3 15 223 38 1
3 15 12 294 1
3 25 12 294 1
3 25 252 228 1
3 31 252 228 1
3 31 25 252 1
222 31 124 105 1
222 31 45 105 1
222 31 223 124 1
222 8 42 45 1
222 31 8 45 1
222 31 8 286 1
222 31 286 232 1
222 31 223 232 1
222 40 286 232 1
222 223 40 232 1
43 33 243 283 1
43 19 10 283 1
43 33 10 283 1
43 33 19 10 1
43 33 243 11 1
43 5 11 296 1
43 243 11 296 1
43 33 28 11 1
24 215 231 96 1
24 275 25 231 1
24 275 215 231 1
24 215 25 163 1
24 275 25 163 1
24 275 215 163 1
24 25 223 124 1
24 222 223 124 1
24 222 15 223 1
24 3 15 223 1
24 3 25 223 1
24 215 15 12 1
24 215 25 12 1
24 3 15 12 1
24 3 25 12 1
41 96 268 5 1
41 215 96 5 1
41 96 268 18 1
41 275 96 18 1
41 275 18 12 1
41 275 215 12 1
41 215 231 96 1
41 275 231 96 1
41 275 215 231 1
41 297 18 12 1
41 19 297 18 1
41 215 15 12 1
41 297 40 12 1
41 19 297 40 1
41 15 40 12 1
78 123 136 293 1
78 123 178 293 1
78 178 254 66 1
78 178 259 293 1
78 71 254 259 1
78 178 254 259 1
78 131 293 261 1
78 131 71 293 1
78 181 293 261 1
78 136 181 261 1
78 136 181 293 1
78 131 136 261 1
78 55 259 293 1
78 148 136 71 1
78 148 131 71 1
78 148 131 136 1
78 55 293 277 1
78 71 293 277 1
78 71 55 277 1
78 55 60 259 1
78 71 60 259 1
78 71 55 60 1
109 207 113 91 1
109 207 175 91 1
109 113 260 91 1
109 175 260 91 1
109 207 118 113 1
109 181 113 260 1
109 175 87 293 1
109 175 87 260 1
109 118 181 113 1
109 123 118 181 1
109 123 181 293 1
109 123 175 293 1
109 181 87 293 1
109 87 260 59 1
109 181 260 59 1
109 181 87 59 1
141 123 94 175 1
141 207 94 175 1
141 109 123 175 1
141 109 207 175 1
141 109 123 118 1
141 109 207 118 1
141 147 94 210 1
141 207 94 129 1
141 147 94 129 1
141 273 118 136 1
141 147 273 116 1
141 147 116 129 1
141 273 118 108 1
141 207 118 108 1
141 273 116 108 1
141 116 108 129 1
141 207 108 129 1
263 139 209 171 1
263 238 139 171 1
263 209 171 132 1
263 238 139 106 1
263 133 171 132 1
263 238 133 171 1
263 209 132 106 1
263 209 110 106 1
263 139 110 106 1
263 139 209 110 1
263 133 127 132 1
199 253 133 184 1
199 238 253 184 1
199 253 92 242 1
199 253 133 242 1
199 238 245 92 1
199 253 92 151 1
199 238 92 151 1
199 238 253 151 1
199 92 277 242 1
199 245 131 92 1
199 131 92 277 1
235 200 197 112 1
235 202 197 112 1
235 112 274 124 1
235 200 274 124 1
235 200 112 274 1
235 200 201 124 1
235 200 201 197 1
235 112 124 105 1
235 202 124 105 1
235 202 112 105 1
235 202 25 124 1
235 202 25 197 1
235 201 163 124 1
235 201 197 163 1
235 25 163 124 1
235 25 197 163 1
111 186 234 166 1
111 234 166 265 1
111 126 97 166 1
111 186 234 265 1
111 104 97 166 1
111 186 104 166 1
111 186 104 97 1
111 126 188 97 1
111 186 188 97 1
111 186 126 188 1
111 186 159 265 1
111 186 126 159 1
111 121 166 265 1
111 121 191 265 1
111 191 135 265 1
111 126 191 135 1
111 126 121 166 1
111 126 159 143 1
111 126 143 135 1
111 121 191 269 1
111 126 191 269 1
111 126 121 269 1
111 159 135 265 1
111 159 143 135 1
153 24 231 96 1
153 119 231 124 1
153 119 231 96 1
153 24 25 124 1
153 24 25 231 1
153 119 96 101 1
153 275 25 231 1
153 201 231 124 1
153 275 201 231 1
153 25 163 124 1
153 275 25 163 1
153 201 163 124 1
153 275 201 163 1
285 8 42 249 1
285 43 5 296 1
285 42 34 249 1
285 8 6 249 1
285 222 8 286 1
285 243 296 20 1
285 43 243 296 1
285 37 243 20 1
285 34 290 249 1
285 34 20 290 1
285 6 290 249 1
285 8 6 286 1
285 37 20 290 1
285 37 6 290 1
285 6 286 36 1
285 37 6 36 1
285 37 251 36 1
26 41 268 5 1
26 268 28 5 1
26 43 215 5 1
26 41 215 5 1
26 41 43 215 1
26 28 5 11 1
26 43 5 11 1
26 43 28 11 1
26 268 28 225 1
26 268 18 225 1
26 41 268 18 1
26 41 43 19 1
26 28 19 225 1
26 19 30 225 1
26 33 28 19 1
26 43 33 19 1
26 43 33 28 1
26 30 225 39 1
26 18 225 39 1
26 18 30 39 1
26 19 18 30 1
26 41 19 18 1
23 41 15 40 1
23 41 19 40 1
23 41 43 19 1
23 41 215 15 1
23 41 43 215 1
23 15 223 40 1
23 222 223 40 1
23 222 15 223 1
23 222 40 286 1
23 43 19 283 1
23 40 286 283 1
23 285 222 286 1
23 24 215 15 1
23 24 222 15 1
23 40 283 1 1
23 19 283 1 1
23 19 40 1 1
23 251 286 283 1
23 285 43 243 1
23 243 251 283 1
23 43 243 283 1
23 251 286 36 1
23 285 286 36 1
23 285 251 36 1
23 37 243 251 1
23 285 37 251 1
23 285 37 243 1
299 78 136 71 1
299 148 136 127 1
299 148 136 71 1
299 148 127 132 1
299 148 71 132 1
299 78 71 254 1
299 71 132 86 1
299 71 254 86 1
299 78 254 66 1
299 198 132 169 1
299 198 127 132 1
299 152 198 169 1
299 152 198 127 1
299 83 254 86 1
299 83 254 66 1
299 152 83 66 1
299 83 132 169 1
299 83 132 86 1
299 152 83 169 1
206 78 123 178 1
206 123 178 138 1
206 167 178 138 1
206 210 170 138 1
206 167 170 138 1
206 152 158 210 1
206 167 178 158 1
206 158 210 170 1
206 167 158 170 1
164 238 133 184 1
164 199 133 184 1
164 199 238 184 1
164 148 133 127 1
164 148 133 131 1
164 148 136 127 1
164 245 136 127 1
164 245 148 136 1
164 245 148 131 1
164 199 245 131 1
164 133 131 277 1
164 199 131 277 1
164 133 277 242 1
164 199 277 242 1
164 199 133 242 1
233 153 96 101 1
233 96 268 5 1
233 215 96 5 1
233 268 5 237 1
233 96 99 101 1
233 96 268 99 1
233 153 119 101 1
233 153 119 248 1
233 24 215 96 1
233 153 24 96 1
233 268 99 237 1
233 248 183 237 1
233 230 248 237 1
233 119 125 101 1
233 119 125 248 1
233 280 99 237 1
233 280 99 101 1
233 280 183 237 1
233 280 183 101 1
233 125 183 101 1
233 125 248 183 1
172 78 123 136 1
172 206 78 123 1
172 299 78 136 1
172 206 299 78 1
172 123 118 136 1
172 141 118 136 1
172 141 123 118 1
172 206 123 138 1
172 299 136 127 1
172 141 147 210 1
172 141 94 210 1
172 123 94 138 1
172 141 123 94 1
172 94 210 138 1
172 206 210 138 1
172 141 273 136 1
172 141 147 273 1
137 299 78 66 1
137 206 299 78 1
137 78 178 66 1
137 206 78 178 1
137 299 152 66 1
137 178 158 66 1
137 206 178 158 1
137 152 158 66 1
137 206 152 158 1
137 172 206 299 1
137 299 152 127 1
137 172 299 127 1
137 206 152 210 1
137 172 206 210 1
137 147 152 127 1
137 172 147 127 1
137 147 152 210 1
137 172 147 210 1
150 199 238 245 1
150 164 199 245 1
150 164 199 238 1
150 238 273 151 1
150 238 245 151 1
150 164 245 127 1
150 164 238 133 1
150 273 118 151 1
150 245 118 151 1
150 245 136 127 1
150 164 133 127 1
150 238 273 106 1
150 273 118 136 1
150 245 118 136 1
150 172 136 127 1
150 172 273 136 1
150 263 238 106 1
150 263 238 133 1
150 172 147 127 1
150 172 147 273 1
150 263 133 127 1
150 273 213 106 1
150 147 198 127 1
150 147 273 198 1
150 263 132 106 1
150 263 127 132 1
150 132 213 106 1
150 127 132 213 1
150 198 127 213 1
150 273 198 213 1
255 233 215 5 1
255 233 24 215 1
255 43 215 5 1
255 23 43 215 1
255 23 24 215 1
255 230 5 237 1
255 233 5 237 1
255 233 230 237 1
255 233 153 24 1
255 285 43 5 1
255 23 285 43 1
255 230 5 296 1
255 233 230 248 1
255 233 153 248 1
255 23 24 222 1
255 23 285 222 1
255 285 5 296 1
255 230 34 296 1
255 42 230 34 1
255 285 8 42 1
255 42 230 98 1
255 230 248 98 1
255 285 222 8 1
255 285 42 34 1
255 222 8 42 1
255 24 222 124 1
255 153 24 124 1
255 119 248 98 1
255 153 119 248 1
255 34 296 20 1
255 285 296 20 1
255 285 34 20 1
255 42 45 98 1
255 119 124 98 1
255 153 119 124 1
255 222 124 105 1
255 124 105 98 1
255 45 105 98 1
255 222 45 105 1
255 222 42 45 1

Triangles
112
47 169 224 1
47 156 224 1
1 35 295 1
1 32 295 1
169 205 224 1
205 224 232 1
57 81 240 1
57 77 81 1
1 35 244 1
1 224 244 1
1 224 294 1
77 81 89 1
81 89 246 1
62 68 88 1
57 62 68 1
62 63 77 1
73 79 240 1
47 73 240 1
4 237 269 1
4 173 269 1
4 173 290 1
21 29 290 1
21 27 290 1
36 149 204 1
35 36 204 1
35 204 205 1
35 205 232 1
35 36 290 1
29 35 290 1
7 21 295 1
21 29 35 1
21 35 295 1
82 102 173 1
82 102 260 1
47 81 240 1
47 156 168 1
63 77 246 1
77 89 246 1
47 169 205 1
185 194 279 1
35 232 244 1
102 128 242 1
102 242 260 1
102 173 269 1
64 173 192 1
64 82 173 1
173 192 290 1
149 192 290 1
36 149 290 1
16 32 39 1
156 224 294 1
62 63 242 1
62 82 260 1
62 242 260 1
62 82 88 1
57 62 77 1
18 103 168 1
18 156 168 1
18 103 279 1
18 39 279 1
39 194 279 1
18 39 294 1
1 39 294 1
81 168 246 1
103 246 279 1
103 168 246 1
47 73 205 1
162 185 237 1
128 162 237 1
102 237 269 1
102 128 237 1
171 246 279 1
171 242 279 1
185 242 279 1
32 281 295 1
17 281 295 1
7 17 295 1
17 32 281 1
16 17 32 1
18 156 294 1
68 82 88 1
64 68 82 1
46 204 205 1
46 79 205 1
73 79 205 1
1 32 39 1
4 17 27 1
17 21 27 1
7 17 21 1
128 162 242 1
162 185 242 1
185 237 268 1
185 194 268 1
4 237 268 1
16 194 268 1
16 39 194 1
224 232 244 1
64 68 266 1
46 204 266 1
149 204 266 1
57 240 266 1
57 68 266 1
46 79 266 1
79 240 266 1
63 242 246 1
47 81 168 1
64 149 192 1
64 149 266 1
4 27 290 1
4 16 17 1
4 16 268 1
171 242 246 1
Edges
0
End
