MeshVersionFormatted 1
Dimension 3
Vertices
20
0.0 0.0 0.0 1
1.0 0.0 0.0 1
1.0 1.0 0.0 1
0.0 1.0 0.0 1
0.0 0.0 1.0 1
1.0 0.0 1.0 1
1.0 1.0 1.0 1
0.0 1.0 1.0 1
0.0 0.0 2.0 1
1.0 0.0 2.0 1
1.0 1.0 2.0 1
0.0 1.0 2.0 1
0.0 0.0 3.0 1
1.0 0.0 3.0 1
1.0 1.0 3.0 1
0.0 1.0 3.0 1
0.0 0.0 4.0 1
1.0 0.0 4.0 1
1.0 1.0 4.0 1
0.0 1.0 4.0 1
Tetrahedra
16
1 2 3 7 1
1 3 4 7 1
1 2 7 5 1
1 7 3 5 1
7 8 5 9 1
7 5 6 9 1
7 9 5 11 1
7 8 9 11 1
9 10 11 15 1
9 11 12 15 1
9 10 15 13 1
9 15 11 13 1
15 16 13 17 1
15 13 14 17 1
15 17 13 19 1
15 16 17 19 1
Edges
0
 End
