MeshVersionFormatted 1

Dimension
3

Vertices
20
0.0 0.0 0.0 1
1.0 0.0 0.0 1
1.0 1.0 0.0 1
0.0 1.0 0.0 1
0.0 0.0 1.0 1
1.0 0.0 1.0 1
1.0 1.0 1.0 1
0.0 1.0 1.0 1
0.0 0.0 2.0 1
1.0 0.0 2.0 1
1.0 1.0 2.0 1
0.0 1.0 2.0 1
0.0 0.0 3.0 1
1.0 0.0 3.0 1
1.0 1.0 3.0 1
0.0 1.0 3.0 1
0.0 0.0 4.0 1
1.0 0.0 4.0 1
1.0 1.0 4.0 1
0.0 1.0 4.0 1

Tetrahedra
8
1 2 3 5 1
1 3 4 7 1
6 7 8 10 1
6 8 5 12 1
9 10 11 13 1
9 11 12 15 1
14 15 16 18 1
14 16 13 20 1

Triangles
36
1 2 3 1
1 3 4 1
17 19 18 1
17 20 19 1
1 2 6 1
1 6 5 1
2 3 7 1
2 7 6 1
3 4 8 1
3 8 7 1
4 1 5 1
4 5 8 1
5 6 10 1
5 10 9 1
6 7 11 1
6 11 10 1
7 8 12 1
7 12 11 1
8 5 9 1
8 9 12 1
9 10 14 1
9 14 13 1
10 11 15 1
10 15 14 1
11 12 16 1
11 16 15 1
12 9 13 1
12 13 16 1
13 14 18 1
13 18 17 1
14 15 19 1
14 19 18 1
15 16 20 1
15 20 19 1
16 13 17 1
16 17 20 1

End
