MeshVersionFormatted 1
Dimension 3
Vertices
300
0.5805967114 -0.1919178899 -0.5048826273 1
-0.6962377508 -0.4962580987 -0.5027129499 1
0.2218884585 0.3230865602 -0.5001982394 1
0.1570782906 -0.1815536086 -0.4998578040 1
-0.2044745114 -0.7497217121 -0.4969811216 1
0.1391857475 -0.0244568997 -0.5033891206 1
0.2154777141 0.8912826729 -0.5074149335 1
0.1708714103 0.3913531014 -0.5006091362 1
-0.5438086744 -0.0872644851 -0.4997402306 1
-0.1688236127 0.6387994034 -0.4992367375 1
0.5015265673 0.5998790598 -0.5014628187 1
-0.3621955185 0.4035481098 -0.5012629534 1
0.1489164701 -0.6526759352 -0.4973866259 1
-0.4460407947 -0.0363081827 -0.5012242261 1
0.7310214111 0.2184377104 -0.5056123758 1
0.3721977567 0.6843268201 -0.4949706881 1
0.2429919419 -0.0811693598 -0.4975117833 1
0.3458914785 -0.9165489761 -0.4976874044 1
0.4467725520 0.3212752955 -0.4989845108 1
-0.7706333124 0.3056679629 -0.4931879214 1
-0.3486337173 0.0113295605 -0.5013780827 1
0.1535981219 -0.0975411421 -0.5025682515 1
-0.2655217915 -0.4352118323 -0.4985630605 1
-0.5528775217 -0.0670990206 -0.5015300492 1
0.2934613996 0.6753813657 -0.5013328798 1
0.1559805834 -0.9701520457 -0.5027664960 1
0.7678434222 -0.5908405933 -0.4987596953 1
0.6875653662 -0.3668274219 -0.5037339641 1
0.0937001686 0.2849953655 -0.4980369030 1
-0.0971086692 0.1901268679 -0.5033764671 1
-0.0760403534 0.6182270148 -0.4996718156 1
-0.5636730963 0.7145705326 -0.4993283479 1
-0.5134455558 -0.1390766654 -0.4943539265 1
0.1249580386 -0.3506105757 -0.5015336470 1
0.2691445948 -0.0228481463 -0.4998328253 1
0.2815742330 0.8284683590 -0.4954113490 1
0.0292360145 -0.0693940101 -0.5030363131 1
-0.1155395164 -0.8309754625 -0.4997800461 1
0.7810090141 0.3901140835 -0.5010073541 1
0.4519449169 0.3976083301 -0.5045094289 1
-0.6646501253 -0.6506820736 -0.5080906599 1
0.5298115545 0.2229701543 -0.4979113809 1
-0.2481966733 0.4999645688 -0.5008066661 1
-0.5578239587 -0.6419960662 -0.4998223447 1
-0.9275605464 0.1635327957 -0.4994057457 1
-0.0795895989 -0.3383639596 0.4983594232 1
-0.8084743535 -0.3292171173 0.4978614627 1
-0.8770609742 0.0334556866 0.5045119790 1
-0.6573111801 0.3211843595 0.5037382556 1
0.1179612490 0.0989624455 0.4988856774 1
-0.1202786879 -0.1363489532 0.4966682725 1
-0.5546049961 -0.0273713955 0.5038146653 1
0.0064015466 0.9492662579 0.4984264392 1
0.0238073700 -0.6438881271 0.5021389953 1
0.4227384821 0.2213171090 0.5021328799 1
0.2862646531 0.4556065871 0.5034779894 1
0.3410934064 -0.8987797304 0.5017793038 1
0.5491808071 -0.5741592831 0.4962466593 1
0.3506727043 0.8256639289 0.4984318309 1
-0.9128884031 -0.2332798282 0.4957746161 1
0.7091046693 -0.5440446243 0.4961587119 1
0.4396533492 0.3533507922 0.5050893691 1
-0.4275893570 0.2108039880 0.4983652427 1
0.5809031227 -0.6943434499 0.5033099056 1
-0.0828467240 -0.0051752044 0.4989091634 1
0.1124760119 0.6371008103 0.4948694948 1
-0.1851553755 0.2972962907 0.5005125963 1
-0.4315956624 0.8701765703 0.5010427451 1
-0.2111621645 -0.6914520311 0.5005875358 1
0.5906289287 -0.1051299522 0.4948922492 1
-0.0078985195 0.9824002607 0.5007680892 1
-0.2186555630 0.6744292687 0.5030431102 1
0.5139116437 0.1187522039 0.4981255443 1
-0.7805571311 -0.0115885433 0.4978227686 1
-0.0400575937 0.2209578148 0.4981654466 1
0.0582392754 0.9482112291 0.4959449462 1
-0.3827426555 0.0283682794 0.4971518033 1
0.0574353222 0.9930425706 0.5005545084 1
0.0572267148 -0.8155538224 0.4982730865 1
-0.0661476915 -0.4752415505 0.4997118203 1
-0.4052483964 -0.4501614632 0.4998950345 1
-0.7706101017 -0.1792899739 0.5054373457 1
0.1555726246 -0.2600341852 0.5018972232 1
0.2228825493 0.5237806662 0.4952893258 1
-0.1720655978 -0.1098961395 0.4997766997 1
0.8205382513 0.0861694510 0.4959939669 1
0.1064386730 0.7096490873 0.5016793713 1
0.3707456504 0.7167244970 0.5013775402 1
-0.6296792799 0.5378861526 0.5012888547 1
0.6290932830 0.7368549334 0.4961697543 1
-0.5447149611 0.8438783765 -0.3866451442 1
0.8921754200 -0.4556199372 0.3774286218 1
-0.0470631627 0.9972071830 0.1602724084 1
0.4085360818 -0.9134236616 0.0542732952 1
-0.9820298738 -0.1866605176 -0.2543804407 1
0.8310382351 0.5516237127 0.3958965648 1
0.8148990888 -0.5850684929 0.1361969909 1
-0.5351265268 0.8483797695 -0.1481215330 1
-0.1502540490 -0.9854134308 0.3955583946 1
0.7629438043 -0.6445251294 0.2787870302 1
-0.6288730681 -0.7742269420 -0.4111213186 1
0.5255898684 0.8485064489 0.3977088347 1
-0.7886532646 -0.6227330458 -0.4938153707 1
0.8012444501 0.5951361190 0.1642044133 1
1.0041458329 0.0288024464 -0.3362389814 1
-0.9541268469 -0.3015892360 0.1939196562 1
-0.5811395606 -0.8150514082 -0.2752313339 1
-0.2339273575 -0.9710299279 -0.2553850121 1
-0.4581399395 0.8882705832 0.2446219835 1
-0.5913161673 -0.8095712410 0.3527904601 1
-0.5441683096 -0.8379088246 0.0658115366 1
0.8331463828 0.5535204681 -0.1303854015 1
-0.0947653385 0.9908942675 -0.2513678410 1
0.9910434226 -0.1706064450 -0.1080653800 1
0.7795034734 -0.6264602523 0.1331142588 1
0.2838829854 -0.9611546283 0.0002422014 1
-0.8896500173 -0.4668091827 -0.0075816871 1
0.3426847218 0.9398440021 0.2231234791 1
-0.1921952963 0.9849315253 -0.4681032363 1
-0.6121521618 -0.7934386645 -0.3197568380 1
0.9328790025 -0.3599038758 0.4556803616 1
0.8592301038 -0.5080026714 -0.1265151890 1
0.9977493168 0.0984860177 0.4315185867 1
-0.8964025222 0.4402213052 0.4686009487 1
0.9734872375 -0.2261569092 0.3566289824 1
-0.2781150254 0.9623600127 -0.1160822878 1
0.5936343800 -0.8009631279 -0.1825046976 1
0.4846834675 0.8706872342 0.0590400232 1
0.9225484657 -0.3839888155 0.1951064620 1
-0.9040058894 -0.4253788730 -0.3980911464 1
-0.7503669275 -0.6605088601 0.4918775396 1
0.6375769873 0.7695103200 0.0189119223 1
0.7207919655 -0.6995648359 0.2411675268 1
-0.3288949204 -0.9415102611 0.1979145233 1
-0.6366340235 0.7736789032 -0.2017115836 1
0.3641922435 -0.9329122343 0.3157568659 1
0.6666785064 -0.7480333605 0.4145605959 1
-0.9989677878 -0.0742697818 0.0036413640 1
0.2995434249 -0.9560042263 0.1461230176 1
-0.2946229261 -0.9528521013 0.2954951418 1
0.7760745476 -0.6406083825 -0.1665814187 1
-0.7117677466 0.7043752953 -0.4052880418 1
-0.8821850457 -0.4712000254 -0.4678123445 1
-0.9723982412 0.2142282896 0.0459965222 1
-0.2265554404 0.9751288014 0.0925425624 1
0.9830365551 0.1923960412 -0.4586643537 1
0.4410960564 -0.8956224135 -0.1400785657 1
0.7022135124 0.7141727054 0.0276460814 1
0.1251725719 -0.9964121027 -0.2837946593 1
-0.7184599185 -0.6951506437 -0.4166104069 1
0.9463996850 0.3133803353 0.0299977126 1
-0.9748546709 -0.2573048204 0.1397111455 1
-0.1473008096 -0.9874614187 0.4729511510 1
-0.9949029825 -0.1022499585 -0.1805186211 1
0.2846245537 -0.9573345511 -0.2298306413 1
-0.9272973294 0.3747508885 -0.4276688233 1
0.9865996622 0.1565647843 0.4596435546 1
0.5134891182 -0.8521978468 0.1978967347 1
-0.8424980952 0.5430876096 -0.3225076136 1
0.5573665878 0.8323008484 -0.2516979122 1
-0.9504521296 -0.3032117163 0.2172815024 1
-0.5328737707 -0.8418431259 -0.2216718087 1
0.9640093672 -0.2792110637 0.2441226993 1
-0.9443153838 -0.3297085834 0.1123144786 1
-0.8770475785 0.4825025484 -0.2532300524 1
-0.6164521279 0.7879629919 0.2561250105 1
0.9958403012 0.0967405395 -0.3787447300 1
0.9598260285 0.2851491846 -0.4589111037 1
0.6170316949 -0.7914463708 0.2028857298 1
-0.9918687403 0.1627570790 -0.4002242515 1
-1.0000623412 0.0573766092 -0.0302055262 1
0.4596347645 0.8864939457 -0.0630070559 1
-0.7984073276 0.5939832866 0.1190861406 1
-0.6609858916 -0.7510179546 -0.4520450104 1
-0.7034266118 0.7040966163 0.1302895368 1
-0.9956655750 -0.0215811066 0.3576772518 1
-0.5412569505 -0.8391193618 -0.3387164884 1
0.9012848666 0.4289333443 0.1459374653 1
0.9877891560 0.1646943628 0.0880906774 1
0.9217624321 -0.3633328101 0.0702550365 1
-0.7642202465 0.6428825403 0.1394041740 1
-0.9623124058 0.2579041233 0.0466563010 1
0.9329843922 -0.3581206084 -0.1136668965 1
0.9665674000 -0.2384486778 0.4038693722 1
0.3293870350 0.9412686065 -0.4261364198 1
0.8086847186 0.5906869968 -0.4828259475 1
0.8280778803 0.5654154189 0.1841525798 1
0.9029120401 0.4356159040 -0.1803080022 1
0.5606581074 -0.8281097310 -0.4769428680 1
0.3939690610 -0.9168929407 -0.2179893876 1
0.7390112389 0.6758540960 0.1969730709 1
-0.6953685920 -0.7216566367 0.3785114790 1
-0.0906698733 -1.0042926397 0.3097460545 1
-0.2003415946 0.9831361955 -0.3256801740 1
0.0057009106 -1.0031527869 0.3049634324 1
1.0039630862 -0.0601946180 -0.0867300245 1
-0.6911249515 0.7217172416 0.2768642175 1
-0.5389879010 0.8488221445 0.4305844692 1
0.6303114066 -0.7736798699 -0.0676893948 1
0.0090341439 -0.9980688321 0.2511138593 1
0.8022252380 0.6001112390 0.4034608131 1
-1.0017183232 -0.0331880544 0.3274437533 1
-0.4250971908 0.9059600756 0.4003643623 1
-0.7659456411 0.6405483795 -0.4862700870 1
0.8319956186 -0.5637795673 -0.4069211230 1
-0.4197697213 0.9057621334 0.4541890875 1
0.9517782696 -0.3050099190 0.0729186727 1
-0.6760400653 -0.7401108089 -0.0558746307 1
-0.2633945160 0.9608284862 -0.1743096317 1
-0.4742874974 -0.8857367719 0.2484052601 1
0.2241190213 -0.8592544249 -0.4108583480 0
0.6644232239 0.2517340562 0.0485543882 0
0.4983277449 -0.4240222843 -0.1532537048 0
0.2081649917 0.2707520405 0.2688298889 0
0.6369815045 0.4683242567 -0.4141089309 0
0.7538142448 0.3718529779 0.3227036336 0
0.7332877087 0.4108958155 -0.4174241797 0
-0.6999838856 0.7004990754 -0.1296528718 1
0.8495188487 -0.2966868686 0.4865407463 1
-0.6144120922 0.6116284580 -0.4212107851 0
-0.8258346026 -0.3134669935 -0.0787254529 0
0.7282884771 0.6139966584 -0.0102799291 0
-0.1041782736 0.0168441488 -0.4455008273 0
0.2558717366 0.2272503042 0.1505317263 0
-0.7479825758 -0.4303784945 0.4628442909 0
-0.1321414998 0.5972935056 0.3673109116 0
0.4606573705 -0.1066683716 -0.4876989451 1
0.9489556543 0.2616990595 0.3891544109 1
0.7215129843 -0.0268515718 -0.4299350250 0
0.7283349440 -0.1448092449 0.0257826173 0
-0.2661070375 -0.7439571341 -0.0474794071 0
-0.6827614999 -0.4028199117 0.4075934579 0
-0.0447755993 0.2100894132 0.4523128147 0
-0.9059106349 0.2589416792 0.1197431357 0
0.1997786964 0.4869214400 -0.0334099577 0
-0.5075598643 -0.2999330962 -0.4263747720 0
0.9831469349 -0.0776779457 0.1957506903 1
-0.2625965420 0.6865994482 0.3121342550 0
0.4335480760 0.7107494925 0.4097898013 0
0.8615859059 -0.2830885781 0.2226752382 0
-0.6840714498 0.3811951262 0.4328307338 0
0.8910063376 0.2615652186 -0.4783007124 0
0.2288433941 -0.5671900318 0.4812949224 1
-0.3208354667 -0.2125579962 -0.1227380664 0
0.5437461722 -0.8231736857 0.3362136691 1
-0.5890457491 0.3508387539 -0.2263649119 0
0.1583240999 -0.1811384544 0.3134090916 0
0.9953944555 -0.0214604985 0.0527199827 1
0.8224317581 -0.2945516914 0.3529213210 0
-0.4716946895 0.1487918583 -0.3717898102 0
-0.7637094886 -0.6039148814 -0.2643992059 0
-0.6028200652 -0.5533955684 -0.1427646314 0
-0.1590153769 -0.2973481828 0.0224320269 0
-0.8689030221 -0.1133985163 0.3481878015 0
-0.6946198560 -0.2760233874 0.3733435028 0
0.4165487334 0.4750302749 -0.4637383251 0
-0.6323238054 -0.5935775516 0.2043252562 0
0.3018915470 0.3515357317 -0.4863261580 1
-0.4992920780 -0.3160416809 -0.1097602263 0
0.5480499735 -0.3751839562 -0.1540117685 0
0.1520760440 -0.7036585393 -0.1033726742 0
0.5116945994 -0.5969317331 0.4509447184 0
0.3433470894 -0.1682355815 -0.0037130843 0
-0.4898452393 0.1290806031 0.4760970666 0
-0.3364878938 0.6167688475 0.1315723177 0
0.4348605265 0.2250116452 -0.3695311998 0
0.2066427518 0.2934477906 -0.3609794041 0
0.3263493907 0.7255140224 -0.1547649793 0
-0.9379727987 0.1560406148 0.1721499910 0
0.1509033793 0.3874809985 -0.4546592053 0
-0.0729919870 0.4033919132 -0.3248297237 0
0.2153848175 0.2035797161 -0.0387099833 0
-0.2983461020 0.3421138735 0.0047280854 0
0.8092532519 0.2060048840 0.2949557050 0
0.6824636384 0.3921964872 0.3694779880 0
0.8891456298 0.3557846647 -0.2285282932 0
-0.0081935315 -0.8955559758 -0.3172085118 0
-0.3219736469 0.3309681766 -0.0143016028 0
-0.5387655639 0.5773927566 -0.0375112134 0
0.8434386439 0.1978701404 -0.2504822625 0
0.6716270260 -0.5172692965 0.0115955285 0
0.5674325209 0.4535861687 -0.0552420413 0
0.0339948524 0.7341248864 -0.2348724725 0
0.6045160084 0.0816701243 -0.1785488054 0
-0.2171708513 0.4095094506 -0.3820547148 0
-0.7796797569 -0.5214684017 0.1776385849 0
-0.8818386265 0.0068778747 -0.4108534258 0
-0.6255611434 -0.3764309914 0.2501240078 0
0.4570781894 0.4697851215 -0.2148441778 0
-0.3685982424 -0.4721986140 0.0711879107 0
0.5935018209 -0.0499454571 0.1017334405 0
0.3878934951 0.2942825712 -0.3491115437 0
0.2608027556 0.4214808470 -0.3098758635 0
0.2494108424 0.4762329390 0.3944950394 0
-0.2841684215 -0.0389478358 -0.0905712125 0
0.7547857265 0.6454988899 -0.1004757109 1
0.6548565512 -0.7299985141 0.3151415163 1
0.2449523124 0.4465532783 0.1694489968 0
-0.8987899815 -0.3350606571 0.0732275777 0
0.0678623118 -0.5262616363 -0.3154738804 0
Tetrahedra
1605
118 113 172 93 1
45 204 32 20 1
220 204 32 20 1
12 220 32 20 1
12 220 43 32 1
12 45 32 20 1
12 7 43 32 1
12 7 43 30 1
12 45 7 32 1
12 7 30 41 1
12 45 7 41 1
157 86 228 274 1
60 48 176 124 1
282 289 284 272 1
268 113 172 93 1
268 118 172 93 1
194 113 119 93 1
31 7 43 30 1
2 45 103 41 1
170 154 287 95 1
170 45 287 95 1
170 45 287 20 1
291 86 237 274 1
298 294 226 66 1
298 294 118 66 1
298 214 294 226 1
298 62 214 294 1
295 253 244 223 1
90 59 88 78 1
123 86 237 274 1
123 157 86 274 1
123 157 228 274 1
178 151 157 228 1
179 123 228 274 1
179 123 237 274 1
179 178 228 274 1
179 178 151 274 1
179 178 151 228 1
179 151 157 228 1
179 123 157 228 1
179 151 167 105 1
179 123 167 105 1
179 168 151 157 1
238 265 226 93 1
238 206 203 53 1
238 53 226 93 1
71 53 78 93 1
71 206 203 53 1
71 238 53 93 1
71 238 203 93 1
71 238 203 53 1
68 206 203 198 1
68 238 203 198 1
68 238 206 203 1
98 220 43 279 1
181 241 265 279 1
181 241 197 265 1
186 36 11 7 1
280 151 167 105 1
280 179 151 105 1
8 31 7 25 1
8 31 7 30 1
8 258 256 25 1
283 268 113 93 1
283 209 194 113 1
283 7 113 119 1
283 31 7 119 1
283 265 226 93 1
283 194 113 119 1
283 209 265 279 1
283 31 7 25 1
283 36 7 25 1
283 36 268 25 1
159 220 204 20 1
143 2 45 103 1
143 251 2 103 1
24 143 45 287 1
24 143 2 45 1
24 45 287 20 1
24 2 45 41 1
24 12 45 20 1
24 14 12 20 1
24 12 45 41 1
24 12 30 41 1
6 267 223 272 1
6 7 30 41 1
292 267 266 272 1
292 289 284 272 1
292 266 284 272 1
292 266 289 284 1
292 267 258 266 1
292 19 258 266 1
270 8 31 25 1
270 283 31 25 1
70 86 73 274 1
70 291 73 274 1
70 291 86 274 1
263 230 284 260 1
263 230 291 284 1
263 291 284 272 1
263 227 284 260 1
263 266 284 272 1
263 295 223 272 1
263 295 253 272 1
263 295 253 223 1
87 59 88 78 1
87 53 226 93 1
87 298 118 93 1
87 298 118 66 1
87 71 53 78 1
87 62 88 78 1
87 71 62 78 1
87 298 226 93 1
87 298 226 66 1
300 263 253 4 1
233 294 226 75 1
233 214 294 75 1
233 214 294 226 1
233 214 50 75 1
56 87 62 88 1
56 214 294 75 1
56 214 50 75 1
56 62 214 294 1
55 50 83 73 1
55 62 50 83 1
55 70 83 73 1
55 214 50 73 1
55 62 86 73 1
55 70 86 73 1
55 56 214 50 1
55 56 62 50 1
55 56 62 214 1
128 268 118 172 1
128 298 268 118 1
128 298 268 282 1
235 283 265 226 1
235 298 214 272 1
235 298 226 93 1
235 283 226 93 1
235 283 268 93 1
235 268 118 93 1
235 298 118 93 1
235 298 268 118 1
235 282 289 272 1
235 268 282 289 1
235 298 268 282 1
239 298 294 118 1
239 128 298 118 1
239 87 59 118 1
239 87 59 88 1
239 294 118 66 1
239 87 118 66 1
239 294 88 66 1
239 87 88 66 1
239 298 282 191 1
239 90 62 88 1
239 56 294 88 1
239 56 62 88 1
239 56 62 294 1
216 178 228 274 1
216 86 228 274 1
246 12 220 20 1
246 159 220 20 1
246 159 165 20 1
246 170 287 20 1
21 295 244 223 1
21 295 14 244 1
21 24 12 30 1
21 24 14 12 1
21 14 244 236 1
21 24 30 41 1
21 24 14 41 1
1 227 284 260 1
1 6 7 41 1
150 103 174 41 1
150 2 103 41 1
150 251 2 103 1
150 44 174 41 1
150 101 44 174 1
150 44 2 41 1
150 44 251 2 1
212 178 151 274 1
212 216 178 274 1
212 280 282 284 1
212 179 151 274 1
212 179 291 274 1
212 282 284 272 1
212 291 284 272 1
212 280 179 151 1
212 291 73 274 1
212 230 291 284 1
212 230 179 291 1
248 291 237 274 1
248 179 237 274 1
248 179 291 274 1
248 230 291 237 1
248 230 179 291 1
248 179 123 237 1
248 212 280 284 1
248 212 280 179 1
248 212 230 284 1
248 212 230 179 1
189 141 205 27 1
189 141 127 27 1
147 189 127 190 1
281 263 230 260 1
281 263 230 291 1
91 204 32 119 1
91 220 43 32 1
91 98 220 43 1
91 98 203 198 1
109 98 265 279 1
109 166 265 279 1
109 166 238 265 1
109 98 203 198 1
109 166 98 198 1
109 91 98 203 1
109 238 203 198 1
109 166 238 198 1
16 36 268 25 1
16 11 7 25 1
16 36 7 25 1
16 36 11 7 1
16 11 256 25 1
16 11 289 256 1
160 16 11 289 1
160 16 268 289 1
201 239 90 191 1
188 168 151 167 1
229 227 266 284 1
229 1 227 284 1
229 280 167 105 1
229 230 114 284 1
229 230 284 260 1
229 1 284 260 1
126 209 194 113 1
126 283 209 113 1
126 283 209 265 1
126 109 91 203 1
126 91 194 119 1
126 91 209 194 1
126 91 209 98 1
126 109 91 98 1
126 98 265 279 1
126 209 265 279 1
126 209 98 279 1
156 45 204 20 1
156 159 204 20 1
156 170 45 20 1
156 159 165 20 1
156 246 165 20 1
156 246 170 20 1
156 246 170 165 1
135 91 98 220 1
135 98 220 279 1
135 166 98 198 1
135 91 98 198 1
9 24 143 287 1
9 259 24 287 1
9 24 143 2 1
35 267 266 272 1
35 6 267 272 1
35 263 266 272 1
35 19 258 266 1
35 227 266 284 1
35 263 266 284 1
35 263 227 284 1
3 35 19 258 1
3 270 267 258 1
3 270 8 258 1
3 267 258 266 1
3 35 258 266 1
3 35 267 266 1
40 292 258 256 1
40 292 19 258 1
40 11 256 25 1
40 258 256 25 1
40 8 258 25 1
40 3 8 258 1
40 3 19 258 1
40 11 7 25 1
40 8 7 25 1
40 35 1 6 1
40 3 35 19 1
40 3 35 6 1
40 8 7 30 1
40 6 7 30 1
40 3 8 30 1
40 3 6 30 1
29 31 43 30 1
29 8 31 30 1
29 270 8 31 1
29 3 8 30 1
29 3 270 8 1
29 3 270 267 1
29 3 6 30 1
29 267 223 30 1
29 6 223 30 1
29 6 267 223 1
29 35 6 267 1
29 3 35 267 1
29 3 35 6 1
125 123 86 237 1
125 248 123 237 1
249 291 86 237 1
249 70 291 86 1
249 125 86 237 1
224 212 291 73 1
224 263 291 272 1
224 55 214 73 1
224 212 55 73 1
224 212 291 272 1
224 233 214 272 1
224 55 62 214 1
224 298 214 272 1
224 233 295 272 1
224 298 62 214 1
224 212 282 272 1
224 212 298 282 1
224 235 282 272 1
224 235 298 272 1
224 235 298 282 1
37 6 223 272 1
37 263 223 272 1
37 263 6 272 1
37 263 253 223 1
37 263 253 4 1
37 6 223 30 1
37 21 223 30 1
37 253 244 223 1
37 6 30 41 1
37 21 30 41 1
37 300 253 244 1
37 300 253 4 1
37 1 6 41 1
76 59 118 78 1
76 87 59 78 1
76 87 59 118 1
76 87 53 78 1
76 53 78 93 1
76 118 78 93 1
76 87 53 93 1
76 87 118 93 1
72 87 53 226 1
72 238 53 226 1
72 87 226 66 1
72 87 71 53 1
72 238 206 53 1
72 68 238 206 1
72 71 206 53 1
72 68 71 206 1
72 87 71 62 1
72 56 87 62 1
72 68 238 198 1
213 263 227 260 1
213 1 227 260 1
213 281 263 260 1
213 189 127 27 1
213 141 127 27 1
213 281 141 260 1
213 141 205 260 1
213 141 205 27 1
5 44 174 41 1
5 101 174 177 1
5 101 44 177 1
5 101 44 174 1
254 60 176 202 1
254 60 48 176 1
252 150 44 251 1
252 251 2 236 1
252 44 2 236 1
252 44 251 2 1
221 299 154 95 1
221 154 287 95 1
221 287 95 236 1
221 252 259 286 1
221 9 287 236 1
221 9 259 236 1
221 9 259 287 1
221 252 251 236 1
221 252 259 236 1
84 294 88 66 1
84 56 294 88 1
84 87 88 66 1
84 56 87 66 1
84 56 87 88 1
84 56 66 75 1
84 56 294 75 1
84 226 66 75 1
84 294 226 75 1
84 294 226 66 1
271 270 283 31 1
271 235 267 272 1
271 295 223 272 1
271 29 31 43 1
271 29 270 31 1
271 29 267 30 1
271 29 270 267 1
271 267 223 272 1
271 267 223 30 1
293 235 283 268 1
293 283 268 25 1
293 270 283 25 1
293 235 268 289 1
293 271 270 283 1
293 271 235 283 1
293 271 270 267 1
293 271 235 267 1
293 16 268 25 1
293 16 268 289 1
293 16 256 25 1
293 16 289 256 1
293 8 256 25 1
293 270 8 25 1
293 292 289 256 1
293 270 267 258 1
293 292 289 272 1
293 235 289 272 1
293 292 267 272 1
293 235 267 272 1
293 8 258 256 1
293 270 8 258 1
293 292 258 256 1
293 292 267 258 1
132 128 298 282 1
132 239 298 282 1
132 239 128 298 1
132 239 282 191 1
132 239 128 191 1
132 160 128 172 1
132 128 268 172 1
132 128 268 282 1
132 160 268 172 1
132 268 282 289 1
132 160 282 289 1
132 160 268 289 1
182 246 170 165 1
182 246 234 165 1
182 156 165 124 1
182 156 170 165 1
164 299 154 95 1
164 152 154 95 1
146 179 123 167 1
146 167 27 105 1
146 205 27 105 1
146 280 168 167 1
146 168 151 167 1
146 179 151 167 1
146 179 168 151 1
199 281 141 115 1
199 189 141 127 1
199 213 141 127 1
199 213 281 141 1
199 213 147 127 1
273 233 214 226 1
273 235 265 226 1
273 233 214 272 1
273 233 295 272 1
273 233 77 295 1
273 298 214 226 1
273 235 298 226 1
273 235 298 214 1
273 235 214 272 1
273 271 295 272 1
273 63 241 265 1
273 271 235 272 1
273 235 283 265 1
273 271 283 265 1
273 271 235 283 1
264 273 63 77 1
10 91 209 194 1
10 91 194 119 1
10 91 98 43 1
10 91 209 98 1
10 283 209 194 1
10 91 32 119 1
10 91 43 32 1
10 283 194 119 1
10 283 31 119 1
10 271 283 31 1
10 7 32 119 1
10 31 7 119 1
10 7 43 32 1
10 31 7 43 1
185 186 36 7 1
185 7 113 119 1
185 186 36 11 1
185 160 186 11 1
185 118 113 172 1
185 268 113 172 1
185 160 268 172 1
185 16 36 11 1
185 160 16 11 1
185 283 7 113 1
185 283 268 113 1
185 283 36 7 1
185 283 36 268 1
185 16 36 268 1
185 160 16 268 1
185 118 78 93 1
185 118 113 93 1
96 90 157 86 1
96 201 90 157 1
96 157 86 228 1
96 90 62 86 1
96 201 90 62 1
96 178 157 228 1
96 216 178 228 1
275 239 90 62 1
275 201 90 62 1
275 201 239 90 1
275 96 201 62 1
275 201 239 191 1
275 298 62 294 1
275 239 62 294 1
275 239 298 294 1
275 239 298 191 1
275 96 62 86 1
275 224 298 62 1
275 224 212 298 1
275 212 298 282 1
275 212 216 282 1
275 298 282 191 1
275 62 86 73 1
275 216 86 228 1
275 96 86 228 1
275 96 216 228 1
275 224 55 62 1
275 224 212 55 1
275 55 62 73 1
275 212 55 73 1
275 86 73 274 1
275 216 86 274 1
275 212 73 274 1
275 212 216 274 1
104 222 282 191 1
104 222 212 178 1
104 275 282 191 1
104 275 216 282 1
104 212 216 282 1
104 222 212 282 1
217 282 289 284 1
217 280 282 284 1
217 266 289 284 1
112 188 178 151 1
112 212 178 151 1
112 222 212 178 1
112 188 212 151 1
112 104 222 178 1
112 222 212 282 1
112 188 212 282 1
112 217 188 186 1
15 229 280 284 1
15 217 266 284 1
15 217 280 284 1
15 229 280 167 1
15 146 229 167 1
15 146 229 1 1
15 40 35 1 1
15 40 11 7 1
15 1 6 7 1
15 40 6 7 1
15 40 1 6 1
15 1 7 41 1
28 229 1 260 1
28 213 205 260 1
28 213 205 27 1
28 213 1 260 1
28 229 114 105 1
28 205 27 105 1
28 146 229 1 1
28 213 189 27 1
28 167 27 105 1
28 229 167 105 1
28 15 146 27 1
28 15 146 1 1
28 146 167 27 1
28 146 229 167 1
28 18 26 27 1
28 1 26 41 1
145 109 98 265 1
145 126 98 265 1
145 126 109 98 1
145 238 265 93 1
145 109 238 265 1
145 283 265 93 1
145 126 283 265 1
145 126 109 203 1
145 238 203 93 1
145 109 238 203 1
145 283 113 93 1
145 126 283 113 1
145 194 113 93 1
145 126 194 113 1
145 71 203 93 1
145 71 206 203 1
145 71 78 93 1
142 159 181 204 1
142 135 181 197 1
142 159 220 204 1
142 135 91 220 1
142 220 204 32 1
142 91 204 32 1
142 91 220 32 1
173 246 165 279 1
173 246 234 279 1
173 246 234 165 1
173 181 241 279 1
173 234 241 279 1
173 182 234 165 1
173 159 165 124 1
173 234 241 124 1
173 182 165 124 1
173 182 234 124 1
173 241 197 124 1
173 181 197 124 1
173 181 241 197 1
175 135 166 197 1
175 135 181 197 1
175 135 166 98 1
175 166 265 279 1
175 166 197 265 1
175 181 265 279 1
175 181 197 265 1
175 109 98 279 1
175 109 166 279 1
175 109 166 98 1
33 14 244 236 1
33 259 244 236 1
33 9 259 236 1
33 9 259 244 1
33 21 14 236 1
17 35 263 227 1
17 263 6 272 1
17 35 6 272 1
17 35 263 272 1
17 213 227 4 1
17 213 263 4 1
17 213 263 227 1
17 1 227 4 1
17 35 1 227 1
184 125 123 86 1
184 249 125 121 1
184 249 125 86 1
196 125 248 123 1
196 248 114 237 1
196 125 248 237 1
196 179 123 105 1
196 248 179 123 1
196 280 179 105 1
196 248 280 179 1
196 248 230 114 1
196 229 114 105 1
196 229 114 284 1
196 229 280 105 1
196 229 280 284 1
196 230 114 284 1
196 248 280 284 1
196 248 230 284 1
240 230 291 237 1
240 249 291 237 1
240 281 230 291 1
240 249 281 291 1
240 249 125 237 1
247 80 243 83 1
247 80 243 253 1
247 70 83 73 1
247 50 83 73 1
247 70 291 73 1
247 263 70 291 1
247 263 253 272 1
247 224 263 272 1
247 224 291 73 1
247 224 263 291 1
247 214 50 73 1
247 224 214 73 1
247 295 253 272 1
247 224 295 272 1
247 233 214 50 1
247 224 233 214 1
247 224 233 295 1
231 5 277 300 1
231 5 44 177 1
231 252 44 177 1
22 37 263 4 1
22 37 263 6 1
22 17 263 4 1
22 17 263 6 1
22 17 35 6 1
22 35 1 6 1
22 17 1 4 1
22 17 35 1 1
49 241 48 124 1
49 72 48 82 1
49 264 63 241 1
49 72 62 82 1
34 300 263 4 1
34 213 263 4 1
34 213 300 263 1
34 28 213 1 1
34 1 227 4 1
34 213 227 4 1
34 213 1 227 1
34 28 1 26 1
34 22 1 4 1
34 22 37 4 1
34 37 300 4 1
34 1 26 41 1
34 37 1 41 1
34 37 1 6 1
34 22 1 6 1
34 22 37 6 1
34 37 300 244 1
116 147 155 190 1
211 189 18 190 1
211 189 127 190 1
211 213 127 190 1
211 213 189 127 1
211 18 155 190 1
211 18 26 155 1
211 26 155 149 1
211 277 26 149 1
261 147 155 190 1
261 211 213 190 1
261 147 127 190 1
261 213 127 190 1
261 213 147 127 1
261 211 155 190 1
261 116 147 155 1
261 211 277 300 1
261 213 300 263 1
261 213 243 263 1
261 199 213 147 1
261 211 155 149 1
261 211 277 149 1
261 116 155 149 1
261 116 277 149 1
261 231 277 300 1
261 300 263 253 1
261 231 300 253 1
261 247 263 253 1
261 247 243 253 1
261 247 243 263 1
261 80 243 253 1
38 26 174 177 1
38 5 174 177 1
38 211 277 26 1
38 26 174 41 1
38 5 174 41 1
38 5 277 300 1
38 34 26 41 1
138 221 299 154 1
138 164 299 154 1
138 164 152 154 1
138 164 152 299 1
138 254 152 299 1
138 221 254 299 1
138 254 152 202 1
138 221 254 259 1
85 77 295 253 1
64 55 70 86 1
64 61 70 86 1
64 55 62 86 1
64 55 70 83 1
64 55 62 83 1
58 64 70 83 1
58 64 61 70 1
58 61 249 70 1
219 61 249 70 1
219 184 249 121 1
219 61 70 86 1
219 249 70 86 1
219 184 249 86 1
219 184 123 121 1
219 184 123 86 1
219 123 157 121 1
219 123 157 86 1
92 219 249 121 1
92 219 61 121 1
92 219 61 249 1
148 222 282 191 1
148 132 282 191 1
148 132 222 282 1
148 104 222 191 1
148 112 186 191 1
144 182 246 170 1
144 182 246 234 1
144 176 124 202 1
130 143 251 103 1
130 221 95 236 1
130 143 251 2 1
130 287 95 236 1
130 251 2 236 1
130 221 251 236 1
130 9 287 236 1
130 9 143 287 1
130 45 287 95 1
130 143 45 287 1
130 9 143 2 1
130 170 45 95 1
130 143 170 95 1
130 143 170 45 1
130 33 2 236 1
130 33 9 236 1
130 33 9 2 1
117 164 299 286 1
117 130 251 103 1
117 221 299 286 1
117 221 252 286 1
117 221 252 251 1
117 130 143 103 1
117 130 221 251 1
117 164 299 95 1
117 221 299 95 1
117 130 221 95 1
117 164 152 95 1
117 130 152 95 1
162 231 252 177 1
162 231 111 252 1
162 231 5 177 1
67 273 233 226 1
67 233 226 75 1
67 273 265 226 1
67 273 63 265 1
67 273 233 77 1
67 273 63 77 1
67 238 265 226 1
67 63 238 265 1
67 226 66 75 1
67 72 226 66 1
67 72 238 226 1
67 72 87 66 1
67 56 66 75 1
67 56 87 66 1
67 72 56 87 1
67 56 50 75 1
67 56 62 50 1
278 241 265 279 1
278 273 265 279 1
278 273 241 265 1
278 234 241 279 1
278 246 234 279 1
278 264 234 241 1
278 246 234 295 1
278 273 63 241 1
278 264 63 241 1
278 264 273 63 1
278 264 234 295 1
278 273 77 295 1
278 264 77 295 1
278 264 273 77 1
278 273 271 295 1
285 273 265 279 1
285 273 271 265 1
285 283 265 279 1
285 271 283 265 1
285 278 273 279 1
285 278 273 271 1
285 10 271 283 1
285 283 209 279 1
285 10 283 209 1
285 209 98 279 1
285 10 209 98 1
285 98 43 279 1
285 10 98 43 1
285 271 31 43 1
285 10 31 43 1
285 10 271 31 1
285 220 43 279 1
285 12 220 43 1
285 278 246 279 1
285 12 43 30 1
285 246 220 279 1
285 246 12 220 1
285 29 43 30 1
285 271 29 30 1
285 271 29 43 1
285 278 271 295 1
285 271 223 30 1
285 271 295 223 1
269 264 234 295 1
269 264 254 295 1
269 254 259 295 1
269 138 254 259 1
269 138 254 202 1
269 254 48 176 1
269 264 234 241 1
269 254 176 202 1
269 48 176 124 1
269 241 48 124 1
269 234 241 124 1
269 144 176 202 1
269 144 176 124 1
269 182 234 124 1
269 144 182 124 1
269 144 182 234 1
74 60 48 82 1
74 254 60 82 1
74 254 60 48 1
74 269 254 48 1
74 269 264 254 1
74 49 241 48 1
74 269 241 48 1
74 49 264 241 1
74 269 264 241 1
54 80 243 83 1
54 64 243 57 1
54 64 57 82 1
54 58 243 83 1
54 58 64 83 1
54 58 64 243 1
54 62 83 82 1
54 64 62 82 1
54 64 62 83 1
54 261 80 243 1
54 231 80 253 1
54 261 80 253 1
54 261 231 253 1
46 85 81 253 1
46 85 51 253 1
46 247 51 253 1
46 247 80 253 1
46 85 80 81 1
46 247 51 83 1
46 247 80 83 1
46 85 51 83 1
46 85 80 83 1
47 60 82 131 1
47 81 82 131 1
47 232 81 82 1
52 264 77 295 1
52 264 254 295 1
52 74 264 254 1
52 85 81 77 1
52 264 63 77 1
52 49 48 82 1
52 74 48 82 1
52 74 49 48 1
52 49 264 63 1
52 74 49 264 1
52 54 83 82 1
52 54 81 82 1
52 67 85 83 1
52 85 80 83 1
52 85 80 81 1
52 49 62 82 1
52 67 49 63 1
52 67 63 77 1
52 67 85 77 1
52 54 80 83 1
52 54 80 81 1
52 62 83 82 1
52 67 62 83 1
52 49 72 62 1
52 67 49 72 1
52 72 56 62 1
52 67 56 62 1
52 67 72 56 1
255 47 232 82 1
255 254 259 295 1
255 52 254 295 1
255 254 60 82 1
255 47 60 82 1
255 74 254 82 1
255 52 74 82 1
255 52 74 254 1
255 232 81 82 1
255 52 81 82 1
102 201 90 191 1
102 59 118 78 1
102 90 59 78 1
102 239 128 118 1
102 128 118 172 1
102 160 128 172 1
102 132 160 128 1
102 132 128 191 1
102 239 59 118 1
102 239 90 191 1
102 239 128 191 1
102 90 59 88 1
102 239 59 88 1
102 239 90 88 1
187 275 96 201 1
187 275 201 191 1
187 104 275 191 1
187 275 96 216 1
187 104 275 216 1
187 112 104 178 1
187 96 216 178 1
187 112 188 178 1
187 201 186 191 1
187 112 186 191 1
187 148 104 191 1
187 148 112 191 1
187 148 112 104 1
187 212 216 178 1
187 104 212 178 1
187 104 212 216 1
276 188 186 168 1
276 217 188 186 1
276 280 168 167 1
276 188 168 167 1
276 217 280 282 1
276 280 151 167 1
276 188 151 167 1
276 212 280 282 1
276 188 212 282 1
276 112 188 282 1
276 112 217 282 1
276 112 217 188 1
276 212 280 151 1
276 188 212 151 1
215 160 186 11 1
215 40 11 256 1
215 160 11 289 1
215 112 217 186 1
215 11 289 256 1
215 292 289 256 1
215 40 292 256 1
215 217 282 289 1
215 112 217 282 1
215 292 266 289 1
215 217 266 289 1
215 40 292 19 1
215 292 19 266 1
42 229 266 284 1
42 15 266 284 1
42 15 229 284 1
42 229 227 266 1
42 229 1 227 1
42 15 229 1 1
42 35 227 266 1
42 35 19 266 1
42 15 217 266 1
42 35 1 227 1
42 15 35 1 1
42 215 19 266 1
42 215 217 266 1
42 40 35 19 1
42 15 40 35 1
42 215 40 19 1
242 146 280 167 1
242 15 280 167 1
242 15 146 167 1
242 146 280 168 1
242 15 217 280 1
242 276 280 168 1
242 276 217 168 1
242 276 217 280 1
242 15 146 27 1
218 142 159 181 1
218 142 135 181 1
218 173 159 181 1
218 142 159 220 1
218 142 135 220 1
218 175 135 181 1
218 173 159 165 1
218 135 220 279 1
218 173 181 279 1
218 175 181 279 1
218 173 165 279 1
218 246 220 279 1
218 246 159 220 1
218 135 98 279 1
218 175 98 279 1
218 175 135 98 1
218 246 165 279 1
218 246 159 165 1
163 240 125 237 1
163 196 114 237 1
163 196 125 237 1
163 196 125 114 1
163 240 249 125 1
163 249 125 121 1
163 92 249 121 1
122 281 141 260 1
122 281 141 115 1
122 141 205 260 1
122 28 205 260 1
65 247 233 295 1
65 247 295 253 1
65 247 51 253 1
65 247 233 50 1
65 233 77 295 1
65 85 77 295 1
65 85 295 253 1
65 85 51 253 1
65 233 50 75 1
65 247 50 83 1
65 247 51 83 1
65 85 51 83 1
65 67 233 75 1
65 67 233 77 1
65 67 85 77 1
65 67 50 75 1
65 67 85 83 1
65 62 50 83 1
65 67 62 83 1
65 67 62 50 1
290 54 231 80 1
290 231 80 253 1
290 46 81 253 1
290 46 80 253 1
290 46 80 81 1
290 231 111 252 1
290 257 111 252 1
290 231 252 259 1
290 231 253 244 1
290 85 81 253 1
89 49 48 124 1
89 49 68 48 1
89 68 198 124 1
89 49 241 124 1
89 197 198 124 1
89 241 197 124 1
89 72 68 198 1
89 49 72 68 1
89 72 238 198 1
89 49 63 241 1
89 166 197 198 1
89 166 238 198 1
89 241 197 265 1
89 67 49 63 1
89 67 49 72 1
89 166 197 265 1
89 166 238 265 1
89 63 241 265 1
89 63 238 265 1
89 67 63 238 1
89 67 72 238 1
13 28 18 26 1
13 34 28 26 1
13 211 18 26 1
13 38 34 26 1
13 38 211 26 1
13 211 189 18 1
13 189 18 27 1
13 28 18 27 1
13 28 189 27 1
13 28 213 189 1
13 34 28 213 1
13 34 213 300 1
13 38 5 300 1
13 211 277 300 1
13 38 277 300 1
13 38 211 277 1
13 211 213 189 1
13 261 213 300 1
13 261 211 300 1
13 261 211 213 1
23 34 37 41 1
23 21 14 41 1
23 37 21 41 1
23 44 2 41 1
23 5 44 41 1
23 33 21 14 1
23 24 2 41 1
23 24 14 41 1
23 38 5 41 1
23 38 34 41 1
23 33 21 236 1
23 9 24 2 1
23 9 24 14 1
23 33 9 2 1
23 33 9 14 1
23 44 2 236 1
23 33 2 236 1
23 13 38 5 1
23 13 38 34 1
23 37 21 223 1
23 34 37 244 1
23 13 5 300 1
23 13 34 300 1
23 252 44 236 1
23 21 244 236 1
23 21 244 223 1
23 37 244 223 1
23 34 300 244 1
23 231 5 44 1
23 231 252 44 1
23 252 259 236 1
23 231 252 259 1
23 259 244 236 1
23 231 5 300 1
23 300 253 244 1
23 231 253 244 1
23 231 300 253 1
23 290 259 244 1
23 290 231 244 1
23 290 231 259 1
94 261 116 147 1
94 261 199 147 1
94 116 147 190 1
94 116 136 190 1
94 199 281 158 1
94 261 281 158 1
94 199 213 281 1
94 261 213 281 1
94 261 199 213 1
171 138 221 154 1
171 138 221 259 1
171 144 246 234 1
171 269 259 295 1
171 269 138 259 1
171 246 234 295 1
171 170 154 287 1
171 246 170 287 1
171 144 246 170 1
171 269 144 234 1
171 269 234 295 1
171 269 138 202 1
171 269 144 202 1
262 247 243 83 1
262 58 243 83 1
262 247 70 83 1
262 58 70 83 1
262 247 243 263 1
262 247 263 70 1
262 263 70 291 1
262 213 281 263 1
262 213 243 263 1
262 281 263 291 1
262 249 70 291 1
262 58 249 70 1
262 261 213 281 1
262 261 213 243 1
262 249 281 291 1
262 261 281 158 1
262 261 243 158 1
262 58 61 249 1
262 58 64 243 1
262 136 243 57 1
262 64 243 57 1
100 92 61 249 1
100 262 249 281 1
100 262 61 249 1
107 162 252 177 1
107 252 44 177 1
210 110 140 153 1
210 107 110 111 1
210 107 162 177 1
210 107 162 111 1
210 290 231 111 1
210 257 110 111 1
210 290 257 111 1
108 231 5 277 1
108 162 231 5 1
108 162 5 177 1
108 38 5 177 1
108 38 5 277 1
108 162 231 111 1
108 38 26 177 1
108 277 26 149 1
108 38 277 26 1
108 210 162 177 1
108 26 174 177 1
250 21 295 223 1
250 285 295 223 1
250 21 223 30 1
250 285 223 30 1
250 21 12 30 1
250 285 12 30 1
250 21 295 14 1
250 278 246 295 1
250 285 278 295 1
250 285 278 246 1
250 285 246 12 1
250 21 14 12 1
250 9 24 14 1
250 24 14 20 1
250 14 12 20 1
250 246 12 20 1
250 295 14 244 1
250 9 259 24 1
250 24 287 20 1
250 246 287 20 1
250 171 259 295 1
250 171 246 295 1
250 259 24 287 1
250 33 14 244 1
250 33 9 244 1
250 33 9 14 1
250 259 295 244 1
250 9 259 244 1
250 171 221 154 1
250 171 221 259 1
250 171 154 287 1
250 171 246 287 1
250 221 154 287 1
250 221 259 287 1
200 54 261 231 1
200 261 231 277 1
200 261 116 277 1
200 108 231 277 1
200 116 277 149 1
200 108 277 149 1
192 110 81 131 1
192 257 110 81 1
192 232 81 131 1
192 257 232 81 1
192 257 232 286 1
192 117 286 131 1
192 257 110 111 1
161 164 299 286 1
161 255 232 286 1
161 117 286 131 1
161 117 164 286 1
161 47 60 131 1
161 255 254 60 1
161 255 47 60 1
161 254 60 202 1
161 254 152 202 1
288 257 232 286 1
288 255 232 286 1
288 252 259 286 1
288 257 252 286 1
288 257 232 81 1
288 290 257 81 1
288 255 232 81 1
288 290 252 259 1
288 290 257 252 1
288 221 299 286 1
288 221 259 286 1
288 161 299 286 1
288 161 255 286 1
288 161 255 299 1
288 290 259 244 1
288 221 254 299 1
288 255 254 299 1
288 221 254 259 1
288 255 254 259 1
288 259 295 244 1
288 255 259 295 1
288 52 81 77 1
288 255 52 81 1
288 85 81 77 1
288 290 85 81 1
288 295 253 244 1
288 290 253 244 1
288 52 77 295 1
288 255 52 295 1
288 85 77 253 1
288 290 85 253 1
288 77 295 253 1
296 215 160 186 1
296 215 112 186 1
296 148 160 186 1
296 148 112 186 1
296 215 160 289 1
296 215 282 289 1
296 215 112 282 1
296 148 132 160 1
296 148 132 222 1
296 112 104 222 1
296 148 104 222 1
296 148 112 104 1
296 160 282 289 1
296 112 222 282 1
296 132 160 282 1
296 132 222 282 1
39 215 217 186 1
39 42 15 40 1
39 42 215 40 1
39 42 15 217 1
39 42 215 217 1
39 15 40 11 1
39 242 15 217 1
39 215 186 11 1
39 215 40 11 1
39 186 11 7 1
39 15 11 7 1
39 242 217 168 1
39 242 15 27 1
39 276 186 168 1
39 276 217 168 1
39 276 217 186 1
39 146 186 168 1
39 242 146 168 1
207 163 114 237 1
207 163 240 237 1
207 240 230 237 1
207 248 114 237 1
207 248 230 237 1
207 248 230 114 1
69 290 54 80 1
69 54 80 81 1
69 290 80 81 1
69 290 54 231 1
69 200 54 231 1
69 110 140 153 1
69 210 110 140 1
69 290 257 81 1
69 210 290 257 1
69 110 153 131 1
69 110 81 131 1
69 81 82 131 1
69 54 81 82 1
69 257 110 81 1
69 210 257 110 1
69 54 57 82 1
139 94 116 136 1
139 94 261 116 1
139 200 261 116 1
139 94 136 158 1
139 94 261 158 1
139 136 243 158 1
139 261 243 158 1
139 54 261 243 1
139 200 54 261 1
137 58 64 61 1
137 262 58 61 1
137 262 58 64 1
137 100 92 61 1
137 64 61 121 1
137 92 61 121 1
134 210 162 111 1
134 108 162 111 1
134 108 210 162 1
134 210 231 111 1
134 108 231 111 1
134 210 290 231 1
134 200 108 231 1
134 69 231 140 1
134 69 290 231 1
134 69 210 140 1
134 69 210 290 1
208 107 110 111 1
208 192 110 111 1
208 107 252 251 1
208 117 252 251 1
208 162 111 252 1
208 107 162 252 1
208 107 162 111 1
208 150 251 103 1
208 117 251 103 1
208 192 117 286 1
208 117 252 286 1
208 117 103 131 1
208 192 103 131 1
208 192 117 131 1
208 192 257 286 1
208 192 257 111 1
208 257 252 286 1
208 257 111 252 1
106 164 152 299 1
106 161 164 299 1
106 254 152 299 1
106 161 254 152 1
106 117 164 152 1
106 161 117 164 1
106 255 254 299 1
106 161 255 299 1
106 161 255 254 1
106 161 117 131 1
225 255 47 232 1
225 161 255 232 1
225 161 255 47 1
225 161 232 286 1
225 161 286 131 1
225 161 47 131 1
225 192 286 131 1
225 192 232 131 1
225 192 232 286 1
225 232 81 131 1
225 47 81 131 1
225 47 232 81 1
183 207 230 114 1
183 229 230 260 1
183 229 230 114 1
183 122 28 260 1
183 281 230 260 1
183 122 281 260 1
183 122 28 205 1
183 207 163 114 1
183 122 92 205 1
183 28 229 260 1
183 28 229 114 1
183 114 205 105 1
183 28 205 105 1
183 28 114 105 1
129 207 163 240 1
129 163 240 249 1
129 163 92 249 1
129 183 207 163 1
129 163 92 121 1
129 183 163 121 1
129 183 122 92 1
193 69 231 140 1
193 69 200 231 1
193 134 231 140 1
193 134 200 231 1
193 134 108 140 1
193 134 200 108 1
193 69 200 54 1
193 200 108 149 1
79 139 136 243 1
79 139 54 243 1
79 136 243 57 1
79 54 243 57 1
79 139 200 136 1
79 139 200 54 1
79 69 54 57 1
79 193 200 54 1
79 57 153 131 1
79 69 153 131 1
79 69 57 131 1
79 193 69 54 1
297 100 262 61 1
297 137 262 61 1
297 137 100 61 1
297 137 262 64 1
120 208 107 110 1
120 208 150 174 1
120 101 174 177 1
120 150 101 174 1
120 208 150 251 1
120 208 107 251 1
120 101 44 177 1
120 107 44 177 1
120 107 252 44 1
120 252 150 251 1
120 107 252 251 1
120 150 101 44 1
120 252 150 44 1
97 129 240 249 1
97 240 249 281 1
97 100 249 281 1
97 100 92 249 1
97 129 92 249 1
97 100 281 115 1
97 129 240 281 1
97 129 122 92 1
97 122 281 115 1
97 122 141 115 1
97 122 141 205 1
97 122 92 205 1
180 129 240 281 1
180 129 207 240 1
180 240 281 230 1
180 207 240 230 1
180 97 129 281 1
180 183 281 230 1
180 183 207 230 1
180 97 122 281 1
180 97 129 122 1
180 183 122 281 1
180 129 183 122 1
180 129 183 207 1
195 79 193 200 1
195 79 57 153 1
195 193 200 149 1
195 79 136 57 1
195 79 200 136 1
195 139 200 136 1
195 200 116 149 1
195 139 116 149 1
195 139 200 116 1
99 79 69 153 1
99 79 193 69 1
99 69 140 153 1
99 193 140 153 1
99 193 69 140 1
99 195 193 153 1
99 195 79 153 1
99 195 79 193 1
169 262 281 158 1
169 297 262 281 1
169 199 281 115 1
169 199 281 158 1
169 199 147 127 1
169 199 189 127 1
169 147 189 127 1
169 147 189 158 1
169 94 147 158 1
169 94 199 158 1
169 94 199 147 1
169 137 136 158 1
133 100 262 281 1
133 297 262 281 1
133 297 100 262 1
133 100 281 115 1
133 169 281 115 1
133 169 297 281 1
133 297 137 100 1
133 169 297 137 1
133 97 141 115 1
133 97 100 115 1
133 199 141 115 1
133 169 199 115 1
133 199 189 141 1
133 169 199 189 1
245 297 262 64 1
245 297 137 64 1
245 169 262 158 1
245 169 297 262 1
245 137 136 158 1
245 136 243 158 1
245 262 243 158 1
245 262 136 243 1
245 262 136 57 1
245 262 64 57 1
245 169 137 158 1
245 169 297 137 1
245 137 136 57 1
245 137 64 57 1
Triangles
260
32 45 204 1
7 32 45 1
7 41 45 1
48 60 124 1
60 124 176 1
93 119 194 1
93 113 119 1
41 45 103 1
95 154 170 1
78 88 90 1
151 157 178 1
123 157 179 1
105 123 167 1
157 168 179 1
151 157 168 1
68 198 206 1
198 203 206 1
45 103 143 1
62 78 88 1
62 71 78 1
62 88 90 1
103 150 174 1
41 103 174 1
141 189 205 1
27 189 205 1
147 189 190 1
91 119 204 1
32 119 204 1
91 198 203 1
151 168 188 1
91 126 203 1
91 119 126 1
119 126 194 1
45 156 204 1
156 159 204 1
45 156 170 1
156 159 165 1
135 166 198 1
91 135 198 1
68 71 72 1
68 71 206 1
62 71 72 1
60 176 202 1
124 156 182 1
124 156 165 1
156 170 182 1
95 152 154 1
123 146 179 1
123 146 167 1
105 146 167 1
27 146 205 1
105 146 205 1
146 168 179 1
7 32 119 1
7 185 186 1
7 119 185 1
113 119 185 1
160 185 186 1
118 172 185 1
160 172 185 1
78 118 185 1
78 93 185 1
93 113 185 1
86 90 157 1
96 157 201 1
90 157 201 1
62 86 90 1
96 157 178 1
151 178 188 1
112 186 188 1
1 15 41 1
7 15 41 1
15 27 28 1
1 15 28 1
26 27 28 1
18 26 27 1
1 28 41 1
26 28 41 1
126 145 203 1
93 145 194 1
126 145 194 1
71 145 206 1
145 203 206 1
71 78 145 1
78 93 145 1
142 181 204 1
159 181 204 1
135 142 197 1
142 181 197 1
91 135 142 1
91 142 204 1
124 159 173 1
124 159 165 1
124 173 181 1
124 181 197 1
135 166 197 1
123 125 184 1
121 125 184 1
123 125 196 1
105 123 196 1
105 114 196 1
48 49 72 1
48 72 82 1
62 72 82 1
116 155 190 1
18 189 190 1
18 155 190 1
18 26 155 1
26 149 155 1
116 149 155 1
26 41 174 1
138 152 154 1
138 152 202 1
61 64 86 1
62 64 86 1
61 86 219 1
121 123 184 1
121 157 219 1
121 123 157 1
86 157 219 1
61 121 219 1
132 148 191 1
148 186 191 1
144 170 182 1
124 144 202 1
124 176 202 1
95 130 143 1
95 143 170 1
45 143 170 1
117 130 143 1
103 117 143 1
117 130 152 1
95 130 152 1
124 144 182 1
48 60 82 1
57 64 82 1
62 64 82 1
60 82 131 1
90 102 201 1
102 191 201 1
78 102 118 1
78 90 102 1
102 118 172 1
102 160 172 1
102 132 160 1
102 132 191 1
96 187 201 1
96 178 187 1
112 187 188 1
178 187 188 1
186 187 201 1
186 191 201 1
112 186 187 1
168 186 188 1
27 146 242 1
159 173 181 1
114 125 163 1
114 125 196 1
121 125 163 1
48 89 124 1
48 68 89 1
48 49 68 1
68 89 124 1
68 124 198 1
124 197 198 1
49 68 72 1
166 197 198 1
18 27 189 1
94 147 190 1
94 136 190 1
116 136 190 1
138 154 171 1
154 170 171 1
144 170 171 1
138 171 202 1
144 171 202 1
110 153 210 1
140 153 210 1
107 110 210 1
107 177 210 1
26 108 149 1
108 177 210 1
26 108 174 1
108 174 177 1
110 131 192 1
60 131 161 1
60 161 202 1
152 161 202 1
148 160 186 1
132 148 160 1
7 39 186 1
7 15 39 1
27 39 242 1
15 27 39 1
39 146 186 1
146 168 186 1
39 146 242 1
110 131 153 1
69 82 131 1
57 69 82 1
116 136 139 1
94 136 158 1
92 100 137 1
64 121 137 1
61 64 121 1
92 121 137 1
108 134 210 1
134 140 210 1
110 192 208 1
103 150 208 1
103 117 131 1
103 192 208 1
103 131 192 1
106 152 161 1
106 117 152 1
106 131 161 1
106 117 131 1
114 163 183 1
92 183 205 1
114 183 205 1
105 114 205 1
92 121 129 1
121 129 183 1
121 163 183 1
92 129 183 1
108 140 193 1
108 134 140 1
108 149 193 1
57 131 153 1
57 69 131 1
110 120 208 1
107 110 120 1
120 174 208 1
150 174 208 1
120 174 177 1
107 120 177 1
92 97 100 1
97 141 205 1
92 97 205 1
57 153 195 1
149 193 195 1
57 136 195 1
136 139 195 1
139 149 195 1
116 139 149 1
140 153 193 1
153 193 195 1
158 169 189 1
147 158 189 1
94 147 158 1
136 137 169 1
136 158 169 1
100 133 137 1
133 137 169 1
97 133 141 1
97 100 133 1
133 141 189 1
133 169 189 1
57 136 137 1
57 64 137 1
Edges
0
End
