# vtk DataFile Version 3.0
Short Cylinder Mesh (Aspect Ratio 2:1)
ASCII
DATASET UNSTRUCTURED_GRID
POINTS 300 float
0.5805967114490365 -0.19191788992910774 -0.5048826273136495
-0.6962377508017848 -0.49625809873324594 -0.5027129498753132
0.2218884584889507 0.32308656016145354 -0.500198239395942
0.15707829058138134 -0.1815536086111198 -0.49985780398605073
-0.20447451140505973 -0.7497217121324126 -0.4969811215723567
0.1391857474593241 -0.02445689973471963 -0.5033891205639729
0.21547771407918268 0.8912826728832021 -0.5074149335003819
0.1708714102546437 0.39135310140533136 -0.500609136158129
-0.5438086743838376 -0.0872644851230021 -0.4997402306375813
-0.16882361270247176 0.6387994033719839 -0.49923673747009634
0.5015265673472245 0.5998790598326941 -0.5014628186722174
-0.3621955185309684 0.40354810979753314 -0.5012629534424607
0.14891647013671136 -0.6526759351835294 -0.49738662588970495
-0.44604079474719677 -0.03630818267093056 -0.5012242261190647
0.7310214110524859 0.21843771035012166 -0.5056123757630776
0.3721977566753328 0.6843268200812794 -0.4949706880631741
0.24299194193224094 -0.08116935976555334 -0.4975117832564495
0.34589147851091023 -0.9165489761091089 -0.4976874044183391
0.4467725519598078 0.32127529547175754 -0.49898451077751677
-0.7706333123749236 0.30566796290363685 -0.4931879214265868
-0.3486337172934015 0.011329560513415972 -0.5013780826986207
0.15359812189560834 -0.09754114214223268 -0.5025682514777265
-0.2655217914648273 -0.43521183234698063 -0.49856306052276084
-0.5528775216905637 -0.06709902064078266 -0.5015300491965642
0.29346139960605294 0.675381365658689 -0.5013328797802283
0.1559805833837141 -0.97015204574377 -0.5027664959725329
0.7678434222264295 -0.5908405932612291 -0.4987596952903289
0.6875653661524822 -0.36682742189040374 -0.5037339641099342
0.09370016858914716 0.28499536550360927 -0.49803690303093784
-0.09710866924574543 0.19012686787447877 -0.5033764671418951
-0.07604035336435713 0.6182270147986307 -0.49967181561618534
-0.5636730963223789 0.7145705326190754 -0.49932834792716263
-0.5134455557680725 -0.13907666538217323 -0.4943539265105749
0.12495803856161032 -0.35061057571439797 -0.5015336470292936
0.26914459475647934 -0.022848146325861712 -0.49983282526313394
0.2815742330412686 0.8284683589725982 -0.49541134904161815
0.02923601452310155 -0.06939401012587096 -0.5030363131257805
-0.11553951639673121 -0.8309754624848219 -0.4997800460984348
0.7810090141332959 0.3901140834711831 -0.5010073540978703
0.45194491688267296 0.3976083300540284 -0.5045094288593543
-0.6646501252811091 -0.6506820736016161 -0.5080906599288247
0.5298115545234925 0.22297015429212674 -0.49791138090555975
-0.24819667328319817 0.49996456882945045 -0.5008066660716645
-0.5578239587152555 -0.6419960661507839 -0.49982234469795656
-0.9275605464260405 0.16353279572729354 -0.4994057457176964
-0.07958959894396334 -0.33836395957365356 0.49835942317627885
-0.8084743535422717 -0.32921711730331515 0.4978614626519685
-0.8770609742193515 0.033455686610824105 0.5045119789657481
-0.6573111800847309 0.3211843595164862 0.5037382555774929
0.11796124902678173 0.09896244546441903 0.4988856774020126
-0.1202786879474602 -0.13634895315589632 0.4966682724636025
-0.5546049960807574 -0.02737139550844107 0.5038146652849824
0.006401546637468291 0.9492662579148313 0.4984264392011607
0.02380736995382757 -0.6438881271309268 0.5021389952905172
0.4227384820559922 0.2213171090289208 0.5021328799046105
0.28626465314477534 0.4556065870846669 0.5034779894100927
0.3410934063812593 -0.8987797303703127 0.5017793037739051
0.5491808071469695 -0.5741592830759864 0.4962466592708441
0.3506727042785822 0.8256639288571366 0.4984318309384429
-0.9128884030784398 -0.23327982818950646 0.49577461611090934
0.7091046692874625 -0.5440446243159995 0.49615871194251115
0.4396533491824056 0.35335079217774645 0.5050893691048701
-0.42758935701841205 0.21080398803996145 0.49836524273957317
0.5809031226528164 -0.6943434499053573 0.5033099056460496
-0.08284672395849445 -0.005175204390288867 0.49890916336335844
0.1124760119149466 0.6371008102868738 0.49486949482203013
-0.18515537545017538 0.29729629073323866 0.5005125963143838
-0.4315956623975447 0.8701765703146087 0.501042745116085
-0.2111621645498643 -0.6914520311280028 0.500587535765293
0.5906289287020535 -0.10512995223900518 0.49489224918728647
-0.007898519539142574 0.9824002607125019 0.5007680892029416
-0.2186555629769969 0.6744292686849633 0.5030431101950544
0.5139116436694743 0.11875220393965841 0.49812554426691297
-0.7805571311338242 -0.01158854330497423 0.4978227685605396
-0.04005759366409863 0.22095781483687477 0.49816544659102413
0.05823927539875021 0.9482112290770865 0.495944946183151
-0.38274265552342185 0.02836827944459125 0.49715180333350417
0.057435322203654784 0.9930425705999761 0.5005545083710846
0.05722671484963532 -0.8155538224027158 0.49827308652128666
-0.06614769145238746 -0.47524155053667894 0.49971182030082606
-0.4052483963592125 -0.45016146317389255 0.49989503452850914
-0.7706101017384438 -0.17928997393354149 0.5054373456739908
0.15557262459007964 -0.26003418523953004 0.5018972232171666
0.22288254931576557 0.5237806662165666 0.49528932584032864
-0.17206559778177333 -0.1098961395192811 0.49977669971269983
0.8205382512834587 0.08616945103072352 0.4959939669238697
0.10643867298771327 0.70964908731943 0.5016793713437931
0.37074565036296625 0.7167244970467425 0.5013775402376853
-0.6296792799499318 0.5378861525690969 0.5012888546573978
0.6290932830030683 0.7368549333645285 0.49616975427253907
-0.5447149610994791 0.8438783765304043 -0.3866451442209809
0.8921754200288768 -0.4556199372450202 0.37742862179946823
-0.04706316274694599 0.9972071830492382 0.16027240836500198
0.408536081772632 -0.9134236615723581 0.05427329522905641
-0.9820298738095022 -0.18666051764550753 -0.2543804407228277
0.8310382350546062 0.5516237127482985 0.3958965647785042
0.8148990887851125 -0.585068492916589 0.13619699089167384
-0.5351265267584776 0.848379769528101 -0.1481215330004688
-0.1502540489577223 -0.98541343077605 0.395558394602276
0.7629438043188709 -0.6445251294079574 0.2787870301763049
-0.6288730680530628 -0.774226942049821 -0.411121318567759
0.5255898684285975 0.8485064488897843 0.3977088347004977
-0.7886532645971706 -0.6227330457575679 -0.4938153706836266
0.8012444500647382 0.5951361190456205 0.16420441330566538
1.0041458328546014 0.028802446379625927 -0.3362389813870716
-0.9541268468780191 -0.3015892359937966 0.19391965616919307
-0.5811395605514394 -0.81505140817322 -0.27523133391480104
-0.23392735754292518 -0.9710299278962033 -0.25538501208346726
-0.45813993950563836 0.8882705831540763 0.24462198353874984
-0.5913161673370277 -0.8095712409812581 0.3527904600875006
-0.5441683095984288 -0.8379088245986772 0.06581153661615893
0.8331463828275006 0.5535204680778696 -0.13038540148729993
-0.09476533846211126 0.990894267500114 -0.2513678410169262
0.9910434226069835 -0.17060644496154867 -0.10806538001304755
0.779503473448081 -0.6264602523216132 0.13311425881528138
0.2838829854156966 -0.9611546283364718 0.00024220137157675075
-0.8896500172886717 -0.46680918274364347 -0.0075816870997574915
0.3426847217836804 0.9398440021331693 0.22312347911642202
-0.19219529630020818 0.9849315253167304 -0.4681032362909253
-0.6121521617875446 -0.7934386645058453 -0.31975683796174387
0.9328790024671675 -0.3599038757674947 0.4556803615585653
0.8592301038027081 -0.5080026714198659 -0.1265151890028069
0.9977493168460615 0.09848601769548401 0.43151858665649284
-0.8964025222018921 0.44022130520977565 0.4686009487064385
0.9734872374968665 -0.22615690915226883 0.3566289823668851
-0.27811502542356337 0.9623600127339685 -0.11608228783505682
0.5936343799793056 -0.8009631278607026 -0.18250469763966262
0.48468346754028235 0.8706872342445119 0.059040023156431816
0.9225484657165806 -0.3839888155259053 0.195106461970114
-0.9040058893636098 -0.42537887300733845 -0.39809114638994103
-0.7503669274714635 -0.6605088601254295 0.4918775396334129
0.6375769872514544 0.7695103200396237 0.01891192234243166
0.7207919654760591 -0.6995648358893605 0.24116752677664507
-0.3288949203700267 -0.9415102610704342 0.19791452327275794
-0.6366340234626284 0.773678903184714 -0.20171158364780362
0.3641922434773024 -0.9329122342639684 0.3157568658875025
0.6666785064007248 -0.7480333605283271 0.4145605959066313
-0.9989677878439936 -0.07426978183866807 0.003641364029097664
0.2995434248609141 -0.9560042263220807 0.14612301758175247
-0.29462292606050156 -0.9528521013313314 0.2954951418447629
0.7760745475926497 -0.6406083824675203 -0.1665814186612384
-0.7117677466403902 0.7043752952886723 -0.4052880418111629
-0.8821850456603746 -0.4712000254225648 -0.46781234447582926
-0.9723982411970231 0.21422828959470344 0.045996522202341
-0.2265554403671159 0.9751288013624643 0.09254256240970736
0.9830365551143685 0.1923960411755074 -0.45866435366038827
0.441096056384573 -0.895622413530478 -0.1400785656715988
0.7022135123935147 0.7141727053744611 0.027646081353536817
0.12517257194386577 -0.9964121026897161 -0.28379465925842445
-0.718459918455838 -0.6951506437028869 -0.4166104069441392
0.9463996850370363 0.3133803353057181 0.029997712610400764
-0.9748546709412683 -0.25730482036032154 0.13971114546663946
-0.14730080962114503 -0.9874614187186821 0.47295115103314694
-0.9949029824855373 -0.10224995851928666 -0.18051862112633166
0.2846245537340512 -0.9573345510787586 -0.22983064125941477
-0.9272973293837654 0.37475088853258487 -0.4276688232630069
0.9865996622240024 0.1565647842725556 0.4596435546482403
0.5134891182319742 -0.8521978467680466 0.19789673467749902
-0.8424980951653112 0.5430876096211991 -0.3225076136193962
0.5573665877837476 0.8323008484093164 -0.2516979121685214
-0.9504521296042087 -0.30321171633915844 0.21728150236014554
-0.5328737707258797 -0.8418431259119094 -0.22167180868873887
0.964009367233017 -0.2792110636691504 0.2441226993136443
-0.9443153837659815 -0.3297085834283754 0.11231447858474018
-0.8770475785008819 0.4825025484233274 -0.2532300524234255
-0.6164521278680224 0.7879629919450671 0.25612501045255337
0.9958403011611541 0.09674053947852841 -0.37874472998278164
0.9598260284855716 0.28514918462621247 -0.45891110370087507
0.6170316948777836 -0.7914463708466185 0.20288572976775365
-0.9918687402561868 0.16275707902108155 -0.4002242515298903
-1.0000623411726464 0.057376609221655384 -0.030205526208441344
0.4596347645210859 0.8864939456883311 -0.0630070558541905
-0.7984073276225185 0.5939832866078556 0.11908614055251035
-0.6609858915967889 -0.751017954580805 -0.45204501041549544
-0.7034266117848302 0.7040966162833474 0.13028953676341407
-0.9956655750356526 -0.021581106625200772 0.3576772517886345
-0.5412569505170398 -0.8391193617779614 -0.3387164883801066
0.9012848665933287 0.4289333442937179 0.1459374652640937
0.9877891559612532 0.16469436280595434 0.08809067740540834
0.9217624321392548 -0.36333281012407137 0.07025503653954465
-0.7642202464506955 0.6428825402626503 0.13940417401519045
-0.9623124057568663 0.2579041233419877 0.046656300961127085
0.9329843921545369 -0.35812060839383625 -0.11366689652604499
0.9665674000009599 -0.2384486777504619 0.4038693722065798
0.3293870349654422 0.941268606501301 -0.4261364197529316
0.8086847186189079 0.5906869968458492 -0.48282594746140556
0.8280778803237133 0.5654154188685545 0.18415257977305152
0.9029120401345397 0.4356159040223046 -0.18030800222915916
0.5606581074329112 -0.8281097309618762 -0.4769428680424163
0.39396906101958723 -0.9168929406848695 -0.21798938756917818
0.7390112388516626 0.6758540959999971 0.19697307093509892
-0.6953685920381282 -0.7216566367310177 0.3785114789547469
-0.09066987329949952 -1.0042926397494654 0.30974605449919074
-0.20034159455358388 0.9831361955418746 -0.3256801740016538
0.005700910587819407 -1.003152786865297 0.3049634323851766
1.0039630861553381 -0.06019461795694593 -0.08673002446903436
-0.6911249514573711 0.721717241645398 0.27686421745742756
-0.5389879010207166 0.8488221444831888 0.43058446921246396
0.6303114066003518 -0.7736798698878703 -0.0676893948261077
0.009034143941819233 -0.9980688320670453 0.2511138593464909
0.8022252380107356 0.6001112389514662 0.40346081307528375
-1.0017183232001285 -0.03318805437094218 0.32744375333865205
-0.425097190819662 0.9059600756226756 0.4003643623033764
-0.7659456411240747 0.6405483795467661 -0.4862700870148366
0.8319956185951158 -0.5637795673116248 -0.4069211230043169
-0.41976972125947903 0.9057621334473291 0.4541890874907398
0.9517782695990098 -0.3050099189842457 0.0729186726504345
-0.6760400652568949 -0.7401108089317968 -0.05587463066946311
-0.26339451597284796 0.960828486239254 -0.17430963167845295
-0.4742874973839851 -0.8857367719120882 0.24840526005745753
0.22411902128605832 -0.8592544248906957 -0.4108583479868428
0.664423223924466 0.2517340561863778 0.048554388173209666
0.4983277448702619 -0.42402228425855976 -0.1532537048482121
0.2081649917015842 0.27075204054434404 0.26882988893649007
0.6369815044647216 0.46832425674504996 -0.4141089308600067
0.7538142447621587 0.37185297793978894 0.32270363356226434
0.7332877087318677 0.4108958155103552 -0.4174241796814081
-0.6999838855889539 0.7004990753549253 -0.12965287181349333
0.8495188487100154 -0.29668686864386024 0.4865407462763313
-0.6144120922061203 0.6116284579901894 -0.4212107851122008
-0.8258346025974546 -0.31346699349336493 -0.07872545293363864
0.7282884771159318 0.6139966584068658 -0.010279929073731755
-0.1041782736090824 0.016844148818852746 -0.4455008272500163
0.2558717365875529 0.22725030421890438 0.15053172632994477
-0.7479825757834133 -0.4303784945049808 0.4628442908767359
-0.1321414998496379 0.597293505587573 0.36731091156608453
0.4606573705477851 -0.10666837157937552 -0.4876989450992065
0.9489556543464213 0.2616990594824553 0.38915441094541825
0.7215129842824034 -0.026851571820504943 -0.429935024970775
0.7283349439736508 -0.1448092449408422 0.025782617300982143
-0.26610703753254294 -0.7439571341294715 -0.04747940710495838
-0.6827614999384416 -0.4028199116541025 0.4075934578743092
-0.04477559927835591 0.21008941318767116 0.452312814719355
-0.9059106348937652 0.25894167919190025 0.11974313570233645
0.19977869643227286 0.48692143997399095 -0.03340995770963311
-0.5075598642690221 -0.29993309624536496 -0.4263747719737524
0.9831469349473927 -0.07767794565939068 0.19575069031583595
-0.2625965419586318 0.6865994482446879 0.3121342549818247
0.4335480759958377 0.7107494925466188 0.40978980127088
0.8615859058894184 -0.28308857808135157 0.22267523819628138
-0.6840714497690796 0.3811951261878632 0.43283073375879094
0.8910063376351153 0.26156521857735 -0.47830071244135886
0.22884339409146298 -0.5671900318333181 0.4812949223872301
-0.3208354667100242 -0.21255799619879123 -0.1227380664250521
0.5437461722017537 -0.8231736856928906 0.33621366914386264
-0.5890457491020076 0.350838753911227 -0.22636491189505653
0.15832409985066004 -0.1811384544258667 0.3134090916021858
0.9953944554902311 -0.021460498487542647 0.05271998267823308
0.8224317581224014 -0.2945516914234108 0.35292132103919427
-0.4716946895130016 0.1487918582564468 -0.37178981019758944
-0.7637094886221841 -0.6039148814001739 -0.2643992058765922
-0.6028200651683796 -0.5533955683838232 -0.142764631359767
-0.1590153769476383 -0.2973481827766835 0.022432026933859074
-0.868903022053101 -0.11339851630485051 0.34818780145786676
-0.6946198560244643 -0.27602338740262367 0.3733435028398234
0.4165487333882572 0.47503027488164934 -0.46373832513436264
-0.632323805354111 -0.5935775516382856 0.20432525617486627
0.30189154703118104 0.35153573168962016 -0.48632615796468404
-0.4992920780164201 -0.3160416809001383 -0.10976022626119683
0.5480499735042809 -0.375183956210374 -0.1540117684551782
0.15207604395804686 -0.7036585393497247 -0.10337267420662245
0.5116945993534638 -0.5969317330892594 0.45094471835628197
0.3433470893887292 -0.16823558152388285 -0.003713084273409868
-0.48984523928905116 0.12908060313502845 0.47609706658842654
-0.33648789379741906 0.6167688474960398 0.1315723177102479
0.4348605265112226 0.22501164519751451 -0.3695311998262806
0.20664275178029773 0.2934477906464498 -0.36097940410615953
0.3263493907360274 0.7255140224249694 -0.15476497934330163
-0.9379727986583977 0.15604061480354764 0.17214999101805828
0.15090337929844172 0.3874809985334602 -0.45465920532297127
-0.07299198700778663 0.40339191317717615 -0.32482972371387603
0.21538481748946278 0.20357971608518438 -0.038709983300147764
-0.29834610204436646 0.342113873509531 0.0047280853640959295
0.8092532519008783 0.20600488404046738 0.29495570500369295
0.6824636384429418 0.392196487178038 0.369477988011531
0.8891456298398351 0.3557846647058581 -0.22852829316553633
-0.00819353150630805 -0.8955559757797772 -0.31720851184580284
-0.3219736468740539 0.33096817664049233 -0.014301602792771033
-0.5387655638595509 0.5773927566358286 -0.037511213414371095
0.8434386439463678 0.19787014038420692 -0.25048226247862393
0.6716270259806757 -0.517269296460279 0.01159552849713633
0.5674325208605758 0.4535861686706412 -0.05524204131862606
0.03399485240445472 0.7341248864228976 -0.23487247247941312
0.6045160084008872 0.08167012425858391 -0.1785488054482773
-0.21717085132636618 0.4095094506246212 -0.3820547147999594
-0.7796797569280525 -0.5214684016704653 0.1776385849200525
-0.8818386264877963 0.006877874651952496 -0.4108534257965484
-0.6255611434010642 -0.37643099140455333 0.25012400777451055
0.4570781894227755 0.46978512149218266 -0.21484417777245818
-0.3685982423555783 -0.47219861398828855 0.0711879106621601
0.5935018209111073 -0.049945457089737966 0.10173344048829806
0.3878934950604875 0.29428257124072743 -0.3491115436525822
0.2608027556303417 0.4214808470098014 -0.30987586348470525
0.24941084237722522 0.47623293897050617 0.3944950393607168
-0.28416842151723726 -0.038947835841693784 -0.0905712125268649
0.7547857265071496 0.6454988898509699 -0.10047571092605638
0.6548565512336794 -0.7299985140799116 0.31514151625813946
0.24495231238462625 0.4465532782978088 0.16944899676102076
-0.8987899814959334 -0.33506065708886856 0.07322757770704874
0.0678623117977264 -0.5262616362828205 -0.31547388044449365

CELLS 1605 8025
4 117 112 171 92
4 44 203 31 19
4 219 203 31 19
4 11 219 31 19
4 11 219 42 31
4 11 44 31 19
4 11 6 42 31
4 11 6 42 29
4 11 44 6 31
4 11 6 29 40
4 11 44 6 40
4 156 85 227 273
4 59 47 175 123
4 281 288 283 271
4 267 112 171 92
4 267 117 171 92
4 193 112 118 92
4 30 6 42 29
4 1 44 102 40
4 169 153 286 94
4 169 44 286 94
4 169 44 286 19
4 290 85 236 273
4 297 293 225 65
4 297 293 117 65
4 297 213 293 225
4 297 61 213 293
4 294 252 243 222
4 89 58 87 77
4 122 85 236 273
4 122 156 85 273
4 122 156 227 273
4 177 150 156 227
4 178 122 227 273
4 178 122 236 273
4 178 177 227 273
4 178 177 150 273
4 178 177 150 227
4 178 150 156 227
4 178 122 156 227
4 178 150 166 104
4 178 122 166 104
4 178 167 150 156
4 237 264 225 92
4 237 205 202 52
4 237 52 225 92
4 70 52 77 92
4 70 205 202 52
4 70 237 52 92
4 70 237 202 92
4 70 237 202 52
4 67 205 202 197
4 67 237 202 197
4 67 237 205 202
4 97 219 42 278
4 180 240 264 278
4 180 240 196 264
4 185 35 10 6
4 279 150 166 104
4 279 178 150 104
4 7 30 6 24
4 7 30 6 29
4 7 257 255 24
4 282 267 112 92
4 282 208 193 112
4 282 6 112 118
4 282 30 6 118
4 282 264 225 92
4 282 193 112 118
4 282 208 264 278
4 282 30 6 24
4 282 35 6 24
4 282 35 267 24
4 158 219 203 19
4 142 1 44 102
4 142 250 1 102
4 23 142 44 286
4 23 142 1 44
4 23 44 286 19
4 23 1 44 40
4 23 11 44 19
4 23 13 11 19
4 23 11 44 40
4 23 11 29 40
4 5 266 222 271
4 5 6 29 40
4 291 266 265 271
4 291 288 283 271
4 291 265 283 271
4 291 265 288 283
4 291 266 257 265
4 291 18 257 265
4 269 7 30 24
4 269 282 30 24
4 69 85 72 273
4 69 290 72 273
4 69 290 85 273
4 262 229 283 259
4 262 229 290 283
4 262 290 283 271
4 262 226 283 259
4 262 265 283 271
4 262 294 222 271
4 262 294 252 271
4 262 294 252 222
4 86 58 87 77
4 86 52 225 92
4 86 297 117 92
4 86 297 117 65
4 86 70 52 77
4 86 61 87 77
4 86 70 61 77
4 86 297 225 92
4 86 297 225 65
4 299 262 252 3
4 232 293 225 74
4 232 213 293 74
4 232 213 293 225
4 232 213 49 74
4 55 86 61 87
4 55 213 293 74
4 55 213 49 74
4 55 61 213 293
4 54 49 82 72
4 54 61 49 82
4 54 69 82 72
4 54 213 49 72
4 54 61 85 72
4 54 69 85 72
4 54 55 213 49
4 54 55 61 49
4 54 55 61 213
4 127 267 117 171
4 127 297 267 117
4 127 297 267 281
4 234 282 264 225
4 234 297 213 271
4 234 297 225 92
4 234 282 225 92
4 234 282 267 92
4 234 267 117 92
4 234 297 117 92
4 234 297 267 117
4 234 281 288 271
4 234 267 281 288
4 234 297 267 281
4 238 297 293 117
4 238 127 297 117
4 238 86 58 117
4 238 86 58 87
4 238 293 117 65
4 238 86 117 65
4 238 293 87 65
4 238 86 87 65
4 238 297 281 190
4 238 89 61 87
4 238 55 293 87
4 238 55 61 87
4 238 55 61 293
4 215 177 227 273
4 215 85 227 273
4 245 11 219 19
4 245 158 219 19
4 245 158 164 19
4 245 169 286 19
4 20 294 243 222
4 20 294 13 243
4 20 23 11 29
4 20 23 13 11
4 20 13 243 235
4 20 23 29 40
4 20 23 13 40
4 0 226 283 259
4 0 5 6 40
4 149 102 173 40
4 149 1 102 40
4 149 250 1 102
4 149 43 173 40
4 149 100 43 173
4 149 43 1 40
4 149 43 250 1
4 211 177 150 273
4 211 215 177 273
4 211 279 281 283
4 211 178 150 273
4 211 178 290 273
4 211 281 283 271
4 211 290 283 271
4 211 279 178 150
4 211 290 72 273
4 211 229 290 283
4 211 229 178 290
4 247 290 236 273
4 247 178 236 273
4 247 178 290 273
4 247 229 290 236
4 247 229 178 290
4 247 178 122 236
4 247 211 279 283
4 247 211 279 178
4 247 211 229 283
4 247 211 229 178
4 188 140 204 26
4 188 140 126 26
4 146 188 126 189
4 280 262 229 259
4 280 262 229 290
4 90 203 31 118
4 90 219 42 31
4 90 97 219 42
4 90 97 202 197
4 108 97 264 278
4 108 165 264 278
4 108 165 237 264
4 108 97 202 197
4 108 165 97 197
4 108 90 97 202
4 108 237 202 197
4 108 165 237 197
4 15 35 267 24
4 15 10 6 24
4 15 35 6 24
4 15 35 10 6
4 15 10 255 24
4 15 10 288 255
4 159 15 10 288
4 159 15 267 288
4 200 238 89 190
4 187 167 150 166
4 228 226 265 283
4 228 0 226 283
4 228 279 166 104
4 228 229 113 283
4 228 229 283 259
4 228 0 283 259
4 125 208 193 112
4 125 282 208 112
4 125 282 208 264
4 125 108 90 202
4 125 90 193 118
4 125 90 208 193
4 125 90 208 97
4 125 108 90 97
4 125 97 264 278
4 125 208 264 278
4 125 208 97 278
4 155 44 203 19
4 155 158 203 19
4 155 169 44 19
4 155 158 164 19
4 155 245 164 19
4 155 245 169 19
4 155 245 169 164
4 134 90 97 219
4 134 97 219 278
4 134 165 97 197
4 134 90 97 197
4 8 23 142 286
4 8 258 23 286
4 8 23 142 1
4 34 266 265 271
4 34 5 266 271
4 34 262 265 271
4 34 18 257 265
4 34 226 265 283
4 34 262 265 283
4 34 262 226 283
4 2 34 18 257
4 2 269 266 257
4 2 269 7 257
4 2 266 257 265
4 2 34 257 265
4 2 34 266 265
4 39 291 257 255
4 39 291 18 257
4 39 10 255 24
4 39 257 255 24
4 39 7 257 24
4 39 2 7 257
4 39 2 18 257
4 39 10 6 24
4 39 7 6 24
4 39 34 0 5
4 39 2 34 18
4 39 2 34 5
4 39 7 6 29
4 39 5 6 29
4 39 2 7 29
4 39 2 5 29
4 28 30 42 29
4 28 7 30 29
4 28 269 7 30
4 28 2 7 29
4 28 2 269 7
4 28 2 269 266
4 28 2 5 29
4 28 266 222 29
4 28 5 222 29
4 28 5 266 222
4 28 34 5 266
4 28 2 34 266
4 28 2 34 5
4 124 122 85 236
4 124 247 122 236
4 248 290 85 236
4 248 69 290 85
4 248 124 85 236
4 223 211 290 72
4 223 262 290 271
4 223 54 213 72
4 223 211 54 72
4 223 211 290 271
4 223 232 213 271
4 223 54 61 213
4 223 297 213 271
4 223 232 294 271
4 223 297 61 213
4 223 211 281 271
4 223 211 297 281
4 223 234 281 271
4 223 234 297 271
4 223 234 297 281
4 36 5 222 271
4 36 262 222 271
4 36 262 5 271
4 36 262 252 222
4 36 262 252 3
4 36 5 222 29
4 36 20 222 29
4 36 252 243 222
4 36 5 29 40
4 36 20 29 40
4 36 299 252 243
4 36 299 252 3
4 36 0 5 40
4 75 58 117 77
4 75 86 58 77
4 75 86 58 117
4 75 86 52 77
4 75 52 77 92
4 75 117 77 92
4 75 86 52 92
4 75 86 117 92
4 71 86 52 225
4 71 237 52 225
4 71 86 225 65
4 71 86 70 52
4 71 237 205 52
4 71 67 237 205
4 71 70 205 52
4 71 67 70 205
4 71 86 70 61
4 71 55 86 61
4 71 67 237 197
4 212 262 226 259
4 212 0 226 259
4 212 280 262 259
4 212 188 126 26
4 212 140 126 26
4 212 280 140 259
4 212 140 204 259
4 212 140 204 26
4 4 43 173 40
4 4 100 173 176
4 4 100 43 176
4 4 100 43 173
4 253 59 175 201
4 253 59 47 175
4 251 149 43 250
4 251 250 1 235
4 251 43 1 235
4 251 43 250 1
4 220 298 153 94
4 220 153 286 94
4 220 286 94 235
4 220 251 258 285
4 220 8 286 235
4 220 8 258 235
4 220 8 258 286
4 220 251 250 235
4 220 251 258 235
4 83 293 87 65
4 83 55 293 87
4 83 86 87 65
4 83 55 86 65
4 83 55 86 87
4 83 55 65 74
4 83 55 293 74
4 83 225 65 74
4 83 293 225 74
4 83 293 225 65
4 270 269 282 30
4 270 234 266 271
4 270 294 222 271
4 270 28 30 42
4 270 28 269 30
4 270 28 266 29
4 270 28 269 266
4 270 266 222 271
4 270 266 222 29
4 292 234 282 267
4 292 282 267 24
4 292 269 282 24
4 292 234 267 288
4 292 270 269 282
4 292 270 234 282
4 292 270 269 266
4 292 270 234 266
4 292 15 267 24
4 292 15 267 288
4 292 15 255 24
4 292 15 288 255
4 292 7 255 24
4 292 269 7 24
4 292 291 288 255
4 292 269 266 257
4 292 291 288 271
4 292 234 288 271
4 292 291 266 271
4 292 234 266 271
4 292 7 257 255
4 292 269 7 257
4 292 291 257 255
4 292 291 266 257
4 131 127 297 281
4 131 238 297 281
4 131 238 127 297
4 131 238 281 190
4 131 238 127 190
4 131 159 127 171
4 131 127 267 171
4 131 127 267 281
4 131 159 267 171
4 131 267 281 288
4 131 159 281 288
4 131 159 267 288
4 181 245 169 164
4 181 245 233 164
4 181 155 164 123
4 181 155 169 164
4 163 298 153 94
4 163 151 153 94
4 145 178 122 166
4 145 166 26 104
4 145 204 26 104
4 145 279 167 166
4 145 167 150 166
4 145 178 150 166
4 145 178 167 150
4 198 280 140 114
4 198 188 140 126
4 198 212 140 126
4 198 212 280 140
4 198 212 146 126
4 272 232 213 225
4 272 234 264 225
4 272 232 213 271
4 272 232 294 271
4 272 232 76 294
4 272 297 213 225
4 272 234 297 225
4 272 234 297 213
4 272 234 213 271
4 272 270 294 271
4 272 62 240 264
4 272 270 234 271
4 272 234 282 264
4 272 270 282 264
4 272 270 234 282
4 263 272 62 76
4 9 90 208 193
4 9 90 193 118
4 9 90 97 42
4 9 90 208 97
4 9 282 208 193
4 9 90 31 118
4 9 90 42 31
4 9 282 193 118
4 9 282 30 118
4 9 270 282 30
4 9 6 31 118
4 9 30 6 118
4 9 6 42 31
4 9 30 6 42
4 184 185 35 6
4 184 6 112 118
4 184 185 35 10
4 184 159 185 10
4 184 117 112 171
4 184 267 112 171
4 184 159 267 171
4 184 15 35 10
4 184 159 15 10
4 184 282 6 112
4 184 282 267 112
4 184 282 35 6
4 184 282 35 267
4 184 15 35 267
4 184 159 15 267
4 184 117 77 92
4 184 117 112 92
4 95 89 156 85
4 95 200 89 156
4 95 156 85 227
4 95 89 61 85
4 95 200 89 61
4 95 177 156 227
4 95 215 177 227
4 274 238 89 61
4 274 200 89 61
4 274 200 238 89
4 274 95 200 61
4 274 200 238 190
4 274 297 61 293
4 274 238 61 293
4 274 238 297 293
4 274 238 297 190
4 274 95 61 85
4 274 223 297 61
4 274 223 211 297
4 274 211 297 281
4 274 211 215 281
4 274 297 281 190
4 274 61 85 72
4 274 215 85 227
4 274 95 85 227
4 274 95 215 227
4 274 223 54 61
4 274 223 211 54
4 274 54 61 72
4 274 211 54 72
4 274 85 72 273
4 274 215 85 273
4 274 211 72 273
4 274 211 215 273
4 103 221 281 190
4 103 221 211 177
4 103 274 281 190
4 103 274 215 281
4 103 211 215 281
4 103 221 211 281
4 216 281 288 283
4 216 279 281 283
4 216 265 288 283
4 111 187 177 150
4 111 211 177 150
4 111 221 211 177
4 111 187 211 150
4 111 103 221 177
4 111 221 211 281
4 111 187 211 281
4 111 216 187 185
4 14 228 279 283
4 14 216 265 283
4 14 216 279 283
4 14 228 279 166
4 14 145 228 166
4 14 145 228 0
4 14 39 34 0
4 14 39 10 6
4 14 0 5 6
4 14 39 5 6
4 14 39 0 5
4 14 0 6 40
4 27 228 0 259
4 27 212 204 259
4 27 212 204 26
4 27 212 0 259
4 27 228 113 104
4 27 204 26 104
4 27 145 228 0
4 27 212 188 26
4 27 166 26 104
4 27 228 166 104
4 27 14 145 26
4 27 14 145 0
4 27 145 166 26
4 27 145 228 166
4 27 17 25 26
4 27 0 25 40
4 144 108 97 264
4 144 125 97 264
4 144 125 108 97
4 144 237 264 92
4 144 108 237 264
4 144 282 264 92
4 144 125 282 264
4 144 125 108 202
4 144 237 202 92
4 144 108 237 202
4 144 282 112 92
4 144 125 282 112
4 144 193 112 92
4 144 125 193 112
4 144 70 202 92
4 144 70 205 202
4 144 70 77 92
4 141 158 180 203
4 141 134 180 196
4 141 158 219 203
4 141 134 90 219
4 141 219 203 31
4 141 90 203 31
4 141 90 219 31
4 172 245 164 278
4 172 245 233 278
4 172 245 233 164
4 172 180 240 278
4 172 233 240 278
4 172 181 233 164
4 172 158 164 123
4 172 233 240 123
4 172 181 164 123
4 172 181 233 123
4 172 240 196 123
4 172 180 196 123
4 172 180 240 196
4 174 134 165 196
4 174 134 180 196
4 174 134 165 97
4 174 165 264 278
4 174 165 196 264
4 174 180 264 278
4 174 180 196 264
4 174 108 97 278
4 174 108 165 278
4 174 108 165 97
4 32 13 243 235
4 32 258 243 235
4 32 8 258 235
4 32 8 258 243
4 32 20 13 235
4 16 34 262 226
4 16 262 5 271
4 16 34 5 271
4 16 34 262 271
4 16 212 226 3
4 16 212 262 3
4 16 212 262 226
4 16 0 226 3
4 16 34 0 226
4 183 124 122 85
4 183 248 124 120
4 183 248 124 85
4 195 124 247 122
4 195 247 113 236
4 195 124 247 236
4 195 178 122 104
4 195 247 178 122
4 195 279 178 104
4 195 247 279 178
4 195 247 229 113
4 195 228 113 104
4 195 228 113 283
4 195 228 279 104
4 195 228 279 283
4 195 229 113 283
4 195 247 279 283
4 195 247 229 283
4 239 229 290 236
4 239 248 290 236
4 239 280 229 290
4 239 248 280 290
4 239 248 124 236
4 246 79 242 82
4 246 79 242 252
4 246 69 82 72
4 246 49 82 72
4 246 69 290 72
4 246 262 69 290
4 246 262 252 271
4 246 223 262 271
4 246 223 290 72
4 246 223 262 290
4 246 213 49 72
4 246 223 213 72
4 246 294 252 271
4 246 223 294 271
4 246 232 213 49
4 246 223 232 213
4 246 223 232 294
4 230 4 276 299
4 230 4 43 176
4 230 251 43 176
4 21 36 262 3
4 21 36 262 5
4 21 16 262 3
4 21 16 262 5
4 21 16 34 5
4 21 34 0 5
4 21 16 0 3
4 21 16 34 0
4 48 240 47 123
4 48 71 47 81
4 48 263 62 240
4 48 71 61 81
4 33 299 262 3
4 33 212 262 3
4 33 212 299 262
4 33 27 212 0
4 33 0 226 3
4 33 212 226 3
4 33 212 0 226
4 33 27 0 25
4 33 21 0 3
4 33 21 36 3
4 33 36 299 3
4 33 0 25 40
4 33 36 0 40
4 33 36 0 5
4 33 21 0 5
4 33 21 36 5
4 33 36 299 243
4 115 146 154 189
4 210 188 17 189
4 210 188 126 189
4 210 212 126 189
4 210 212 188 126
4 210 17 154 189
4 210 17 25 154
4 210 25 154 148
4 210 276 25 148
4 260 146 154 189
4 260 210 212 189
4 260 146 126 189
4 260 212 126 189
4 260 212 146 126
4 260 210 154 189
4 260 115 146 154
4 260 210 276 299
4 260 212 299 262
4 260 212 242 262
4 260 198 212 146
4 260 210 154 148
4 260 210 276 148
4 260 115 154 148
4 260 115 276 148
4 260 230 276 299
4 260 299 262 252
4 260 230 299 252
4 260 246 262 252
4 260 246 242 252
4 260 246 242 262
4 260 79 242 252
4 37 25 173 176
4 37 4 173 176
4 37 210 276 25
4 37 25 173 40
4 37 4 173 40
4 37 4 276 299
4 37 33 25 40
4 137 220 298 153
4 137 163 298 153
4 137 163 151 153
4 137 163 151 298
4 137 253 151 298
4 137 220 253 298
4 137 253 151 201
4 137 220 253 258
4 84 76 294 252
4 63 54 69 85
4 63 60 69 85
4 63 54 61 85
4 63 54 69 82
4 63 54 61 82
4 57 63 69 82
4 57 63 60 69
4 57 60 248 69
4 218 60 248 69
4 218 183 248 120
4 218 60 69 85
4 218 248 69 85
4 218 183 248 85
4 218 183 122 120
4 218 183 122 85
4 218 122 156 120
4 218 122 156 85
4 91 218 248 120
4 91 218 60 120
4 91 218 60 248
4 147 221 281 190
4 147 131 281 190
4 147 131 221 281
4 147 103 221 190
4 147 111 185 190
4 143 181 245 169
4 143 181 245 233
4 143 175 123 201
4 129 142 250 102
4 129 220 94 235
4 129 142 250 1
4 129 286 94 235
4 129 250 1 235
4 129 220 250 235
4 129 8 286 235
4 129 8 142 286
4 129 44 286 94
4 129 142 44 286
4 129 8 142 1
4 129 169 44 94
4 129 142 169 94
4 129 142 169 44
4 129 32 1 235
4 129 32 8 235
4 129 32 8 1
4 116 163 298 285
4 116 129 250 102
4 116 220 298 285
4 116 220 251 285
4 116 220 251 250
4 116 129 142 102
4 116 129 220 250
4 116 163 298 94
4 116 220 298 94
4 116 129 220 94
4 116 163 151 94
4 116 129 151 94
4 161 230 251 176
4 161 230 110 251
4 161 230 4 176
4 66 272 232 225
4 66 232 225 74
4 66 272 264 225
4 66 272 62 264
4 66 272 232 76
4 66 272 62 76
4 66 237 264 225
4 66 62 237 264
4 66 225 65 74
4 66 71 225 65
4 66 71 237 225
4 66 71 86 65
4 66 55 65 74
4 66 55 86 65
4 66 71 55 86
4 66 55 49 74
4 66 55 61 49
4 277 240 264 278
4 277 272 264 278
4 277 272 240 264
4 277 233 240 278
4 277 245 233 278
4 277 263 233 240
4 277 245 233 294
4 277 272 62 240
4 277 263 62 240
4 277 263 272 62
4 277 263 233 294
4 277 272 76 294
4 277 263 76 294
4 277 263 272 76
4 277 272 270 294
4 284 272 264 278
4 284 272 270 264
4 284 282 264 278
4 284 270 282 264
4 284 277 272 278
4 284 277 272 270
4 284 9 270 282
4 284 282 208 278
4 284 9 282 208
4 284 208 97 278
4 284 9 208 97
4 284 97 42 278
4 284 9 97 42
4 284 270 30 42
4 284 9 30 42
4 284 9 270 30
4 284 219 42 278
4 284 11 219 42
4 284 277 245 278
4 284 11 42 29
4 284 245 219 278
4 284 245 11 219
4 284 28 42 29
4 284 270 28 29
4 284 270 28 42
4 284 277 270 294
4 284 270 222 29
4 284 270 294 222
4 268 263 233 294
4 268 263 253 294
4 268 253 258 294
4 268 137 253 258
4 268 137 253 201
4 268 253 47 175
4 268 263 233 240
4 268 253 175 201
4 268 47 175 123
4 268 240 47 123
4 268 233 240 123
4 268 143 175 201
4 268 143 175 123
4 268 181 233 123
4 268 143 181 123
4 268 143 181 233
4 73 59 47 81
4 73 253 59 81
4 73 253 59 47
4 73 268 253 47
4 73 268 263 253
4 73 48 240 47
4 73 268 240 47
4 73 48 263 240
4 73 268 263 240
4 53 79 242 82
4 53 63 242 56
4 53 63 56 81
4 53 57 242 82
4 53 57 63 82
4 53 57 63 242
4 53 61 82 81
4 53 63 61 81
4 53 63 61 82
4 53 260 79 242
4 53 230 79 252
4 53 260 79 252
4 53 260 230 252
4 45 84 80 252
4 45 84 50 252
4 45 246 50 252
4 45 246 79 252
4 45 84 79 80
4 45 246 50 82
4 45 246 79 82
4 45 84 50 82
4 45 84 79 82
4 46 59 81 130
4 46 80 81 130
4 46 231 80 81
4 51 263 76 294
4 51 263 253 294
4 51 73 263 253
4 51 84 80 76
4 51 263 62 76
4 51 48 47 81
4 51 73 47 81
4 51 73 48 47
4 51 48 263 62
4 51 73 48 263
4 51 53 82 81
4 51 53 80 81
4 51 66 84 82
4 51 84 79 82
4 51 84 79 80
4 51 48 61 81
4 51 66 48 62
4 51 66 62 76
4 51 66 84 76
4 51 53 79 82
4 51 53 79 80
4 51 61 82 81
4 51 66 61 82
4 51 48 71 61
4 51 66 48 71
4 51 71 55 61
4 51 66 55 61
4 51 66 71 55
4 254 46 231 81
4 254 253 258 294
4 254 51 253 294
4 254 253 59 81
4 254 46 59 81
4 254 73 253 81
4 254 51 73 81
4 254 51 73 253
4 254 231 80 81
4 254 51 80 81
4 101 200 89 190
4 101 58 117 77
4 101 89 58 77
4 101 238 127 117
4 101 127 117 171
4 101 159 127 171
4 101 131 159 127
4 101 131 127 190
4 101 238 58 117
4 101 238 89 190
4 101 238 127 190
4 101 89 58 87
4 101 238 58 87
4 101 238 89 87
4 186 274 95 200
4 186 274 200 190
4 186 103 274 190
4 186 274 95 215
4 186 103 274 215
4 186 111 103 177
4 186 95 215 177
4 186 111 187 177
4 186 200 185 190
4 186 111 185 190
4 186 147 103 190
4 186 147 111 190
4 186 147 111 103
4 186 211 215 177
4 186 103 211 177
4 186 103 211 215
4 275 187 185 167
4 275 216 187 185
4 275 279 167 166
4 275 187 167 166
4 275 216 279 281
4 275 279 150 166
4 275 187 150 166
4 275 211 279 281
4 275 187 211 281
4 275 111 187 281
4 275 111 216 281
4 275 111 216 187
4 275 211 279 150
4 275 187 211 150
4 214 159 185 10
4 214 39 10 255
4 214 159 10 288
4 214 111 216 185
4 214 10 288 255
4 214 291 288 255
4 214 39 291 255
4 214 216 281 288
4 214 111 216 281
4 214 291 265 288
4 214 216 265 288
4 214 39 291 18
4 214 291 18 265
4 41 228 265 283
4 41 14 265 283
4 41 14 228 283
4 41 228 226 265
4 41 228 0 226
4 41 14 228 0
4 41 34 226 265
4 41 34 18 265
4 41 14 216 265
4 41 34 0 226
4 41 14 34 0
4 41 214 18 265
4 41 214 216 265
4 41 39 34 18
4 41 14 39 34
4 41 214 39 18
4 241 145 279 166
4 241 14 279 166
4 241 14 145 166
4 241 145 279 167
4 241 14 216 279
4 241 275 279 167
4 241 275 216 167
4 241 275 216 279
4 241 14 145 26
4 217 141 158 180
4 217 141 134 180
4 217 172 158 180
4 217 141 158 219
4 217 141 134 219
4 217 174 134 180
4 217 172 158 164
4 217 134 219 278
4 217 172 180 278
4 217 174 180 278
4 217 172 164 278
4 217 245 219 278
4 217 245 158 219
4 217 134 97 278
4 217 174 97 278
4 217 174 134 97
4 217 245 164 278
4 217 245 158 164
4 162 239 124 236
4 162 195 113 236
4 162 195 124 236
4 162 195 124 113
4 162 239 248 124
4 162 248 124 120
4 162 91 248 120
4 121 280 140 259
4 121 280 140 114
4 121 140 204 259
4 121 27 204 259
4 64 246 232 294
4 64 246 294 252
4 64 246 50 252
4 64 246 232 49
4 64 232 76 294
4 64 84 76 294
4 64 84 294 252
4 64 84 50 252
4 64 232 49 74
4 64 246 49 82
4 64 246 50 82
4 64 84 50 82
4 64 66 232 74
4 64 66 232 76
4 64 66 84 76
4 64 66 49 74
4 64 66 84 82
4 64 61 49 82
4 64 66 61 82
4 64 66 61 49
4 289 53 230 79
4 289 230 79 252
4 289 45 80 252
4 289 45 79 252
4 289 45 79 80
4 289 230 110 251
4 289 256 110 251
4 289 230 251 258
4 289 230 252 243
4 289 84 80 252
4 88 48 47 123
4 88 48 67 47
4 88 67 197 123
4 88 48 240 123
4 88 196 197 123
4 88 240 196 123
4 88 71 67 197
4 88 48 71 67
4 88 71 237 197
4 88 48 62 240
4 88 165 196 197
4 88 165 237 197
4 88 240 196 264
4 88 66 48 62
4 88 66 48 71
4 88 165 196 264
4 88 165 237 264
4 88 62 240 264
4 88 62 237 264
4 88 66 62 237
4 88 66 71 237
4 12 27 17 25
4 12 33 27 25
4 12 210 17 25
4 12 37 33 25
4 12 37 210 25
4 12 210 188 17
4 12 188 17 26
4 12 27 17 26
4 12 27 188 26
4 12 27 212 188
4 12 33 27 212
4 12 33 212 299
4 12 37 4 299
4 12 210 276 299
4 12 37 276 299
4 12 37 210 276
4 12 210 212 188
4 12 260 212 299
4 12 260 210 299
4 12 260 210 212
4 22 33 36 40
4 22 20 13 40
4 22 36 20 40
4 22 43 1 40
4 22 4 43 40
4 22 32 20 13
4 22 23 1 40
4 22 23 13 40
4 22 37 4 40
4 22 37 33 40
4 22 32 20 235
4 22 8 23 1
4 22 8 23 13
4 22 32 8 1
4 22 32 8 13
4 22 43 1 235
4 22 32 1 235
4 22 12 37 4
4 22 12 37 33
4 22 36 20 222
4 22 33 36 243
4 22 12 4 299
4 22 12 33 299
4 22 251 43 235
4 22 20 243 235
4 22 20 243 222
4 22 36 243 222
4 22 33 299 243
4 22 230 4 43
4 22 230 251 43
4 22 251 258 235
4 22 230 251 258
4 22 258 243 235
4 22 230 4 299
4 22 299 252 243
4 22 230 252 243
4 22 230 299 252
4 22 289 258 243
4 22 289 230 243
4 22 289 230 258
4 93 260 115 146
4 93 260 198 146
4 93 115 146 189
4 93 115 135 189
4 93 198 280 157
4 93 260 280 157
4 93 198 212 280
4 93 260 212 280
4 93 260 198 212
4 170 137 220 153
4 170 137 220 258
4 170 143 245 233
4 170 268 258 294
4 170 268 137 258
4 170 245 233 294
4 170 169 153 286
4 170 245 169 286
4 170 143 245 169
4 170 268 143 233
4 170 268 233 294
4 170 268 137 201
4 170 268 143 201
4 261 246 242 82
4 261 57 242 82
4 261 246 69 82
4 261 57 69 82
4 261 246 242 262
4 261 246 262 69
4 261 262 69 290
4 261 212 280 262
4 261 212 242 262
4 261 280 262 290
4 261 248 69 290
4 261 57 248 69
4 261 260 212 280
4 261 260 212 242
4 261 248 280 290
4 261 260 280 157
4 261 260 242 157
4 261 57 60 248
4 261 57 63 242
4 261 135 242 56
4 261 63 242 56
4 99 91 60 248
4 99 261 248 280
4 99 261 60 248
4 106 161 251 176
4 106 251 43 176
4 209 109 139 152
4 209 106 109 110
4 209 106 161 176
4 209 106 161 110
4 209 289 230 110
4 209 256 109 110
4 209 289 256 110
4 107 230 4 276
4 107 161 230 4
4 107 161 4 176
4 107 37 4 176
4 107 37 4 276
4 107 161 230 110
4 107 37 25 176
4 107 276 25 148
4 107 37 276 25
4 107 209 161 176
4 107 25 173 176
4 249 20 294 222
4 249 284 294 222
4 249 20 222 29
4 249 284 222 29
4 249 20 11 29
4 249 284 11 29
4 249 20 294 13
4 249 277 245 294
4 249 284 277 294
4 249 284 277 245
4 249 284 245 11
4 249 20 13 11
4 249 8 23 13
4 249 23 13 19
4 249 13 11 19
4 249 245 11 19
4 249 294 13 243
4 249 8 258 23
4 249 23 286 19
4 249 245 286 19
4 249 170 258 294
4 249 170 245 294
4 249 258 23 286
4 249 32 13 243
4 249 32 8 243
4 249 32 8 13
4 249 258 294 243
4 249 8 258 243
4 249 170 220 153
4 249 170 220 258
4 249 170 153 286
4 249 170 245 286
4 249 220 153 286
4 249 220 258 286
4 199 53 260 230
4 199 260 230 276
4 199 260 115 276
4 199 107 230 276
4 199 115 276 148
4 199 107 276 148
4 191 109 80 130
4 191 256 109 80
4 191 231 80 130
4 191 256 231 80
4 191 256 231 285
4 191 116 285 130
4 191 256 109 110
4 160 163 298 285
4 160 254 231 285
4 160 116 285 130
4 160 116 163 285
4 160 46 59 130
4 160 254 253 59
4 160 254 46 59
4 160 253 59 201
4 160 253 151 201
4 287 256 231 285
4 287 254 231 285
4 287 251 258 285
4 287 256 251 285
4 287 256 231 80
4 287 289 256 80
4 287 254 231 80
4 287 289 251 258
4 287 289 256 251
4 287 220 298 285
4 287 220 258 285
4 287 160 298 285
4 287 160 254 285
4 287 160 254 298
4 287 289 258 243
4 287 220 253 298
4 287 254 253 298
4 287 220 253 258
4 287 254 253 258
4 287 258 294 243
4 287 254 258 294
4 287 51 80 76
4 287 254 51 80
4 287 84 80 76
4 287 289 84 80
4 287 294 252 243
4 287 289 252 243
4 287 51 76 294
4 287 254 51 294
4 287 84 76 252
4 287 289 84 252
4 287 76 294 252
4 295 214 159 185
4 295 214 111 185
4 295 147 159 185
4 295 147 111 185
4 295 214 159 288
4 295 214 281 288
4 295 214 111 281
4 295 147 131 159
4 295 147 131 221
4 295 111 103 221
4 295 147 103 221
4 295 147 111 103
4 295 159 281 288
4 295 111 221 281
4 295 131 159 281
4 295 131 221 281
4 38 214 216 185
4 38 41 14 39
4 38 41 214 39
4 38 41 14 216
4 38 41 214 216
4 38 14 39 10
4 38 241 14 216
4 38 214 185 10
4 38 214 39 10
4 38 185 10 6
4 38 14 10 6
4 38 241 216 167
4 38 241 14 26
4 38 275 185 167
4 38 275 216 167
4 38 275 216 185
4 38 145 185 167
4 38 241 145 167
4 206 162 113 236
4 206 162 239 236
4 206 239 229 236
4 206 247 113 236
4 206 247 229 236
4 206 247 229 113
4 68 289 53 79
4 68 53 79 80
4 68 289 79 80
4 68 289 53 230
4 68 199 53 230
4 68 109 139 152
4 68 209 109 139
4 68 289 256 80
4 68 209 289 256
4 68 109 152 130
4 68 109 80 130
4 68 80 81 130
4 68 53 80 81
4 68 256 109 80
4 68 209 256 109
4 68 53 56 81
4 138 93 115 135
4 138 93 260 115
4 138 199 260 115
4 138 93 135 157
4 138 93 260 157
4 138 135 242 157
4 138 260 242 157
4 138 53 260 242
4 138 199 53 260
4 136 57 63 60
4 136 261 57 60
4 136 261 57 63
4 136 99 91 60
4 136 63 60 120
4 136 91 60 120
4 133 209 161 110
4 133 107 161 110
4 133 107 209 161
4 133 209 230 110
4 133 107 230 110
4 133 209 289 230
4 133 199 107 230
4 133 68 230 139
4 133 68 289 230
4 133 68 209 139
4 133 68 209 289
4 207 106 109 110
4 207 191 109 110
4 207 106 251 250
4 207 116 251 250
4 207 161 110 251
4 207 106 161 251
4 207 106 161 110
4 207 149 250 102
4 207 116 250 102
4 207 191 116 285
4 207 116 251 285
4 207 116 102 130
4 207 191 102 130
4 207 191 116 130
4 207 191 256 285
4 207 191 256 110
4 207 256 251 285
4 207 256 110 251
4 105 163 151 298
4 105 160 163 298
4 105 253 151 298
4 105 160 253 151
4 105 116 163 151
4 105 160 116 163
4 105 254 253 298
4 105 160 254 298
4 105 160 254 253
4 105 160 116 130
4 224 254 46 231
4 224 160 254 231
4 224 160 254 46
4 224 160 231 285
4 224 160 285 130
4 224 160 46 130
4 224 191 285 130
4 224 191 231 130
4 224 191 231 285
4 224 231 80 130
4 224 46 80 130
4 224 46 231 80
4 182 206 229 113
4 182 228 229 259
4 182 228 229 113
4 182 121 27 259
4 182 280 229 259
4 182 121 280 259
4 182 121 27 204
4 182 206 162 113
4 182 121 91 204
4 182 27 228 259
4 182 27 228 113
4 182 113 204 104
4 182 27 204 104
4 182 27 113 104
4 128 206 162 239
4 128 162 239 248
4 128 162 91 248
4 128 182 206 162
4 128 162 91 120
4 128 182 162 120
4 128 182 121 91
4 192 68 230 139
4 192 68 199 230
4 192 133 230 139
4 192 133 199 230
4 192 133 107 139
4 192 133 199 107
4 192 68 199 53
4 192 199 107 148
4 78 138 135 242
4 78 138 53 242
4 78 135 242 56
4 78 53 242 56
4 78 138 199 135
4 78 138 199 53
4 78 68 53 56
4 78 192 199 53
4 78 56 152 130
4 78 68 152 130
4 78 68 56 130
4 78 192 68 53
4 296 99 261 60
4 296 136 261 60
4 296 136 99 60
4 296 136 261 63
4 119 207 106 109
4 119 207 149 173
4 119 100 173 176
4 119 149 100 173
4 119 207 149 250
4 119 207 106 250
4 119 100 43 176
4 119 106 43 176
4 119 106 251 43
4 119 251 149 250
4 119 106 251 250
4 119 149 100 43
4 119 251 149 43
4 96 128 239 248
4 96 239 248 280
4 96 99 248 280
4 96 99 91 248
4 96 128 91 248
4 96 99 280 114
4 96 128 239 280
4 96 128 121 91
4 96 121 280 114
4 96 121 140 114
4 96 121 140 204
4 96 121 91 204
4 179 128 239 280
4 179 128 206 239
4 179 239 280 229
4 179 206 239 229
4 179 96 128 280
4 179 182 280 229
4 179 182 206 229
4 179 96 121 280
4 179 96 128 121
4 179 182 121 280
4 179 128 182 121
4 179 128 182 206
4 194 78 192 199
4 194 78 56 152
4 194 192 199 148
4 194 78 135 56
4 194 78 199 135
4 194 138 199 135
4 194 199 115 148
4 194 138 115 148
4 194 138 199 115
4 98 78 68 152
4 98 78 192 68
4 98 68 139 152
4 98 192 139 152
4 98 192 68 139
4 98 194 192 152
4 98 194 78 152
4 98 194 78 192
4 168 261 280 157
4 168 296 261 280
4 168 198 280 114
4 168 198 280 157
4 168 198 146 126
4 168 198 188 126
4 168 146 188 126
4 168 146 188 157
4 168 93 146 157
4 168 93 198 157
4 168 93 198 146
4 168 136 135 157
4 132 99 261 280
4 132 296 261 280
4 132 296 99 261
4 132 99 280 114
4 132 168 280 114
4 132 168 296 280
4 132 296 136 99
4 132 168 296 136
4 132 96 140 114
4 132 96 99 114
4 132 198 140 114
4 132 168 198 114
4 132 198 188 140
4 132 168 198 188
4 244 296 261 63
4 244 296 136 63
4 244 168 261 157
4 244 168 296 261
4 244 136 135 157
4 244 135 242 157
4 244 261 242 157
4 244 261 135 242
4 244 261 135 56
4 244 261 63 56
4 244 168 136 157
4 244 168 296 136
4 244 136 135 56
4 244 136 63 56

CELL_TYPES 1605
10
10
10
10
10
10
10
10
10
10
10
10
10
10
10
10
10
10
10
10
10
10
10
10
10
10
10
10
10
10
10
10
10
10
10
10
10
10
10
10
10
10
10
10
10
10
10
10
10
10
10
10
10
10
10
10
10
10
10
10
10
10
10
10
10
10
10
10
10
10
10
10
10
10
10
10
10
10
10
10
10
10
10
10
10
10
10
10
10
10
10
10
10
10
10
10
10
10
10
10
10
10
10
10
10
10
10
10
10
10
10
10
10
10
10
10
10
10
10
10
10
10
10
10
10
10
10
10
10
10
10
10
10
10
10
10
10
10
10
10
10
10
10
10
10
10
10
10
10
10
10
10
10
10
10
10
10
10
10
10
10
10
10
10
10
10
10
10
10
10
10
10
10
10
10
10
10
10
10
10
10
10
10
10
10
10
10
10
10
10
10
10
10
10
10
10
10
10
10
10
10
10
10
10
10
10
10
10
10
10
10
10
10
10
10
10
10
10
10
10
10
10
10
10
10
10
10
10
10
10
10
10
10
10
10
10
10
10
10
10
10
10
10
10
10
10
10
10
10
10
10
10
10
10
10
10
10
10
10
10
10
10
10
10
10
10
10
10
10
10
10
10
10
10
10
10
10
10
10
10
10
10
10
10
10
10
10
10
10
10
10
10
10
10
10
10
10
10
10
10
10
10
10
10
10
10
10
10
10
10
10
10
10
10
10
10
10
10
10
10
10
10
10
10
10
10
10
10
10
10
10
10
10
10
10
10
10
10
10
10
10
10
10
10
10
10
10
10
10
10
10
10
10
10
10
10
10
10
10
10
10
10
10
10
10
10
10
10
10
10
10
10
10
10
10
10
10
10
10
10
10
10
10
10
10
10
10
10
10
10
10
10
10
10
10
10
10
10
10
10
10
10
10
10
10
10
10
10
10
10
10
10
10
10
10
10
10
10
10
10
10
10
10
10
10
10
10
10
10
10
10
10
10
10
10
10
10
10
10
10
10
10
10
10
10
10
10
10
10
10
10
10
10
10
10
10
10
10
10
10
10
10
10
10
10
10
10
10
10
10
10
10
10
10
10
10
10
10
10
10
10
10
10
10
10
10
10
10
10
10
10
10
10
10
10
10
10
10
10
10
10
10
10
10
10
10
10
10
10
10
10
10
10
10
10
10
10
10
10
10
10
10
10
10
10
10
10
10
10
10
10
10
10
10
10
10
10
10
10
10
10
10
10
10
10
10
10
10
10
10
10
10
10
10
10
10
10
10
10
10
10
10
10
10
10
10
10
10
10
10
10
10
10
10
10
10
10
10
10
10
10
10
10
10
10
10
10
10
10
10
10
10
10
10
10
10
10
10
10
10
10
10
10
10
10
10
10
10
10
10
10
10
10
10
10
10
10
10
10
10
10
10
10
10
10
10
10
10
10
10
10
10
10
10
10
10
10
10
10
10
10
10
10
10
10
10
10
10
10
10
10
10
10
10
10
10
10
10
10
10
10
10
10
10
10
10
10
10
10
10
10
10
10
10
10
10
10
10
10
10
10
10
10
10
10
10
10
10
10
10
10
10
10
10
10
10
10
10
10
10
10
10
10
10
10
10
10
10
10
10
10
10
10
10
10
10
10
10
10
10
10
10
10
10
10
10
10
10
10
10
10
10
10
10
10
10
10
10
10
10
10
10
10
10
10
10
10
10
10
10
10
10
10
10
10
10
10
10
10
10
10
10
10
10
10
10
10
10
10
10
10
10
10
10
10
10
10
10
10
10
10
10
10
10
10
10
10
10
10
10
10
10
10
10
10
10
10
10
10
10
10
10
10
10
10
10
10
10
10
10
10
10
10
10
10
10
10
10
10
10
10
10
10
10
10
10
10
10
10
10
10
10
10
10
10
10
10
10
10
10
10
10
10
10
10
10
10
10
10
10
10
10
10
10
10
10
10
10
10
10
10
10
10
10
10
10
10
10
10
10
10
10
10
10
10
10
10
10
10
10
10
10
10
10
10
10
10
10
10
10
10
10
10
10
10
10
10
10
10
10
10
10
10
10
10
10
10
10
10
10
10
10
10
10
10
10
10
10
10
10
10
10
10
10
10
10
10
10
10
10
10
10
10
10
10
10
10
10
10
10
10
10
10
10
10
10
10
10
10
10
10
10
10
10
10
10
10
10
10
10
10
10
10
10
10
10
10
10
10
10
10
10
10
10
10
10
10
10
10
10
10
10
10
10
10
10
10
10
10
10
10
10
10
10
10
10
10
10
10
10
10
10
10
10
10
10
10
10
10
10
10
10
10
10
10
10
10
10
10
10
10
10
10
10
10
10
10
10
10
10
10
10
10
10
10
10
10
10
10
10
10
10
10
10
10
10
10
10
10
10
10
10
10
10
10
10
10
10
10
10
10
10
10
10
10
10
10
10
10
10
10
10
10
10
10
10
10
10
10
10
10
10
10
10
10
10
10
10
10
10
10
10
10
10
10
10
10
10
10
10
10
10
10
10
10
10
10
10
10
10
10
10
10
10
10
10
10
10
10
10
10
10
10
10
10
10
10
10
10
10
10
10
10
10
10
10
10
10
10
10
10
10
10
10
10
10
10
10
10
10
10
10
10
10
10
10
10
10
10
10
10
10
10
10
10
10
10
10
10
10
10
10
10
10
10
10
10
10
10
10
10
10
10
10
10
10
10
10
10
10
10
10
10
10
10
10
10
10
10
10
10
10
10
10
10
10
10
10
10
10
10
10
10
10
10
10
10
10
10
10
10
10
10
10
10
10
10
10
10
10
10
10
10
10
10
10
10
10
10
10
10
10
10
10
10
10
10
10
10
10
10
10
10
10
10
10
10
10
10
10
10
10
10
10
10
10
10
10
10
10
10
10
10
10
10
10
10
10
10
10
10
10
10
10
10
10
10
10
10
10
10
10
10
10
10
10
10
10
10
10
10
10
10
10
10
10
10
10
10
10
10
10
10
10
10
10
10
10
10
10
10
10
10
10
10
10
10
10
10
10
10
10
10
10
10
10
10
10
10
10
10
10
10
10
10
10
10
10
10
10
10
10
10
10
10
10
10
10
10
10
10
10
10
10
10
10
10
10
10
10
10
10
10
10
10
10
10
10
10
10
10
10
10
10
10
10
10
10
10
10
10
10
10
10
10
10
10
10
10
10
10
10
10
10
10
10
10
10
10
10
10
10
10
10
10
10
10
10
10
10
10
10
10
10
10
10
10
10
10
10
10
10
10
10
10
10
10
10
10
10
10
10
10
10
10
10
10
10
10
10
10
10
10
10
10
10
10
10
10
10
10
10
10
10
10
10
10
10
10
10
10
10
10
10
10
10
10
10
10
10
10
10
10
10
10
10
10
10
10
10
10
10
10
10
10
10
10
10
10
10
10
10
10
10
10
10
10
10
10
10
10
10
10
10
10
10
10
10
10
10
10
10
10
10
10
10
10
10
10
10
10
10
10
10
10
10
10
10
10
10
10
10
10
10
10
10
10
10
10
10
10
10
10
10
10
10
10
10
10
10
10
10
10
10
10
10
10
10
10
10
10
10
10
10
10
10
10
10
10
10
10
10
10
10
10
10
10
10
10
10
10
10
10
10
10
10
10
10
10
10
10
10
10
10
10
