MeshVersionFormatted 1

Dimension
3

Vertices
15
0.0 0.0 0.0 1
1.0 0.0 0.0 1
0.5 0.8660254037844386 0.0 1
0.0 0.0 1.0 1
1.0 0.0 1.0 1
0.5 0.8660254037844386 1.0 1
0.0 0.0 2.0 1
1.0 0.0 2.0 1
0.5 0.8660254037844386 2.0 1
0.0 0.0 3.0 1
1.0 0.0 3.0 1
0.5 0.8660254037844386 3.0 1
0.0 0.0 4.0 1
1.0 0.0 4.0 1
0.5 0.8660254037844386 4.0 1

Tetrahedra
12
1 2 3 4 1
2 3 4 5 1
3 4 5 6 1
4 5 6 7 1
5 6 7 8 1
6 7 8 9 1
7 8 9 10 1
8 9 10 11 1
9 10 11 12 1
10 11 12 13 1
11 12 13 14 1
12 13 14 15 1

Triangles
26
1 2 3 1
13 15 14 1
1 2 5 1
1 5 4 1
2 3 6 1
2 6 5 1
3 1 4 1
3 4 6 1
4 5 8 1
4 8 7 1
5 6 9 1
5 9 8 1
6 4 7 1
6 7 9 1
7 8 11 1
7 11 10 1
8 9 12 1
8 12 11 1
9 7 10 1
9 10 12 1
10 11 14 1
10 14 13 1
11 12 15 1
11 15 14 1
12 10 13 1
12 13 15 1

End
